<svg width="322" height="292" viewBox="0 0 322 292" fill="none" xmlns="http://www.w3.org/2000/svg">
<path d="M304.89 49.9351C304.89 49.9351 283.963 7.18023 237.745 0.844537C191.527 -5.49116 159.226 25.3862 125.239 41.2254C107.432 49.5162 87.0604 46.2969 68.1798 50.31C7.70572 63.1431 -15.072 143.552 10.1117 189.276C31.917 228.863 70.2833 249.443 128.719 254.199C187.154 258.954 228.128 264.489 280.462 225.695C332.796 186.902 329.295 106.148 304.89 49.9351Z" fill="#54BD26" fill-opacity="0.3"/>
<path opacity="0.7" d="M304.89 49.9351C304.89 49.9351 283.963 7.18023 237.745 0.844537C191.527 -5.49116 159.226 25.3862 125.239 41.2254C107.432 49.5162 87.0604 46.2969 68.1798 50.31C7.70572 63.1431 -15.072 143.552 10.1117 189.276C31.917 228.863 70.2833 249.443 128.719 254.199C187.154 258.954 228.128 264.489 280.462 225.695C332.796 186.902 329.295 106.148 304.89 49.9351Z" fill="white"/>
<path d="M295.367 238.345C297.859 223.726 321.53 195.759 314.679 178.597C307.829 161.434 291.001 216.082 284.77 216.736C278.539 217.39 284.151 191.944 292.874 167.792C301.598 143.64 308.448 118.209 292.874 108.676C277.3 99.1432 277.919 174.782 274.181 172.239C270.442 169.696 276.673 137.914 272.315 118.209C267.957 98.5038 257.987 114.394 257.987 137.319C257.987 160.244 264.838 172.915 259.853 174.804C254.868 176.693 239.575 169.586 239.921 194.509C240.266 219.433 259.233 249.179 252.376 245.364C245.518 241.549 233.063 226.93 235.555 250.45C237.32 267.076 249.962 283.055 257.238 291H290.547C295.626 285.671 305.495 274.441 312.158 261.255C321.53 242.799 292.874 252.971 295.367 238.345Z" fill="#54BD26"/>
<path d="M254.868 289.516C248.702 280.497 245.82 269.472 242.939 259.182C241.498 252.567 241.498 245.217 246.541 240.807C251.583 237.132 254.465 243.747 257.346 246.687C259.507 245.217 258.066 243.012 258.066 241.542C256.629 229.84 255.907 218.057 255.905 206.263C255.905 198.913 258.787 193.033 261.668 186.418C263.109 184.213 264.55 182.008 266.711 181.273C268.872 180.538 271.033 181.273 271.753 183.478C273.194 188.623 273.194 193.768 273.914 198.913C275.355 197.443 274.635 195.238 274.635 193.768C277.516 172.453 275.355 151.873 281.838 131.293C282.559 129.823 284.72 128.353 286.16 129.088C291.203 129.823 291.203 136.438 291.203 140.848C294.084 162.163 287.601 182.743 285.44 204.058C285.44 205.528 284.72 206.998 286.16 208.467C286.881 203.323 289.762 198.178 291.203 193.033C291.923 190.828 293.364 187.888 295.525 186.418C296.966 185.683 298.406 186.418 299.847 187.888C302.729 192.298 303.449 196.708 302.729 201.853C300.568 214.347 296.245 224.637 291.203 235.662L289.042 242.277C288.321 246.687 285.44 251.832 288.321 255.507C293.364 254.772 294.805 248.892 299.127 245.952C303.449 243.012 304.89 246.687 305.61 249.627C308.491 264.327 303.449 277.557 296.188 289.486" stroke="#263238" stroke-width="0.724833" stroke-linecap="round" stroke-linejoin="round"/>
<path d="M275.045 286.707C275.045 286.707 273.367 252.361 277.574 221.028" stroke="#263238" stroke-width="0.724833" stroke-linecap="round" stroke-linejoin="round"/>
<path d="M261.164 264.812L275.045 280.269L287.248 269.531" stroke="#263238" stroke-width="0.724833" stroke-linecap="round" stroke-linejoin="round"/>
<path d="M271.256 226.181L275.045 245.923L285.988 226.181" stroke="#263238" stroke-width="0.724833" stroke-linecap="round" stroke-linejoin="round"/>
<path d="M277.992 215.875L280.513 197.419" stroke="#263238" stroke-width="0.724833" stroke-linecap="round" stroke-linejoin="round"/>
<path d="M78.589 65.3696H33.2208V123.236H78.589V65.3696Z" stroke="#263238" stroke-width="0.724833" stroke-linecap="round" stroke-linejoin="round"/>
<path d="M135.303 65.3696H89.9346V123.236H135.303V65.3696Z" stroke="#263238" stroke-width="0.724833" stroke-linecap="round" stroke-linejoin="round"/>
<path d="M78.589 132.704H33.2208V190.57H78.589V132.704Z" stroke="#263238" stroke-width="0.724833" stroke-linecap="round" stroke-linejoin="round"/>
<path d="M135.303 132.704H89.9346V190.57H135.303V132.704Z" stroke="#263238" stroke-width="0.724833" stroke-linecap="round" stroke-linejoin="round"/>
<path d="M78.589 200.037H33.2208V257.904H78.589V200.037Z" stroke="#263238" stroke-width="0.724833" stroke-linecap="round" stroke-linejoin="round"/>
<path d="M135.303 200.037H89.9346V257.904H135.303V200.037Z" stroke="#263238" stroke-width="0.724833" stroke-linecap="round" stroke-linejoin="round"/>
<path d="M84.7768 5.40137C71.3765 5.40137 58.525 10.8328 49.0496 20.5008C39.5741 30.1689 34.2509 43.2815 34.2509 56.9542H135.303C135.303 43.2815 129.98 30.1689 120.504 20.5008C111.029 10.8328 98.1771 5.40137 84.7768 5.40137Z" stroke="#263238" stroke-width="0.724833" stroke-linecap="round" stroke-linejoin="round"/>
<path d="M150.121 33.0369C150.121 33.0369 150.121 22.0119 131.571 24.2169C113.022 26.4219 105.249 43.1431 99.645 46.6637C94.0406 50.1844 83.6819 53.2787 83.2496 58.5487C82.8174 63.8186 87.5718 66.031 82.8174 69.9926C78.0631 73.9543 70.773 77.497 72.4659 82.7816C74.1587 88.0663 78.9491 93.3435 76.788 96.8715C74.627 100.4 68.5903 103.913 74.1947 107.897C79.7991 111.88 82.3924 112.74 82.3924 118.017C82.3924 123.295 80.2313 126.837 85.4179 128.587C90.6045 130.336 93.6084 126.823 96.6339 133.423C99.6594 140.023 102.671 141.787 107.85 140.464C113.029 139.141 120.355 136.944 122.977 138.708C125.6 140.472 133.783 145.323 137.212 142.669C140.641 140.016 143.695 136.054 148.86 138.259C154.025 140.464 158.354 143.544 160.508 139.582C162.662 135.621 160.508 134.739 168.706 132.967C176.903 131.196 179.922 131.652 179.922 124.61C179.922 117.569 179.49 115.79 183.372 112.725C187.255 109.661 190.706 110.961 189.416 103.479C188.127 95.9969 185.533 94.2329 186.823 86.7506C188.112 79.2683 184.662 76.6297 182.076 74.4247C179.49 72.2197 176.471 68.2654 177.336 64.3037C178.2 60.3421 184.669 59.8937 178.193 52.8598C171.717 45.8258 168.706 48.0161 167.388 42.7315C166.069 37.4469 161.769 25.9956 150.121 33.0369Z" fill="#263238" stroke="#263238" stroke-width="0.724833" stroke-linecap="round" stroke-linejoin="round"/>
<path d="M133.559 46.29C130.901 50.5824 128.848 55.4261 124.569 59.52C118.389 65.4 102.555 70.545 101.784 76.0722C101.014 81.5994 103.715 84.7378 98.3123 89.4639C92.9097 94.1899 84.4094 95.3439 84.4094 100.107C84.4094 104.869 86.7218 106.413 85.5692 109.956" stroke="#616161" stroke-width="0.724833" stroke-miterlimit="10"/>
<path d="M145.042 40.9981C145.042 40.9981 143.111 35.8531 137.702 40.9981C137.284 41.395 136.888 41.8066 136.513 42.2255" stroke="#616161" stroke-width="0.724833" stroke-miterlimit="10"/>
<path d="M101.417 63.5176C96.6628 64.6936 92.9098 65.5388 92.5208 68.9786C91.7428 75.6745 92.9026 80.0036 88.2707 81.9808C83.6388 83.9579 77.4653 87.1258 79.3886 91.0433C81.312 94.9609 81.701 96.1883 81.3192 97.7392" stroke="#616161" stroke-width="0.724833" stroke-miterlimit="10"/>
<path d="M144.25 34.6916C144.25 34.6916 133.444 27.6062 127.681 33.9051C121.919 40.2041 124.591 48.0906 115.709 56.7636C113.453 58.9068 110.791 60.5553 107.886 61.6073" stroke="#616161" stroke-width="0.724833" stroke-miterlimit="10"/>
<path d="M181.831 90.5737C182.479 91.6006 183.374 92.4407 184.431 93.0139" stroke="#616161" stroke-width="0.724833" stroke-miterlimit="10"/>
<path d="M151.994 44.5623C151.994 44.5623 161.646 41.4091 163.959 46.9216C166.271 52.4341 167.438 62.2905 171.688 63.8707C175.938 65.451 177.862 67.8103 177.862 76.4759C177.857 79.2689 178.265 82.0466 179.072 84.7153" stroke="#616161" stroke-width="0.724833" stroke-miterlimit="10"/>
<path d="M89.4304 114.681C92.5208 109.536 96.7637 111.535 97.1527 106.015C97.5417 100.495 94.4513 98.9226 97.5345 95.3799C100.618 91.8372 105.646 90.2349 105.646 90.2349" stroke="#616161" stroke-width="0.724833" stroke-miterlimit="10"/>
<path d="M93.6732 125.721C92.2463 124.515 91.0075 123.095 89.9994 121.509" stroke="#616161" stroke-width="0.724833" stroke-miterlimit="10"/>
<path d="M200.596 290.978C200.596 290.978 201.886 272.934 194.113 254.883C186.34 236.831 184.59 235.53 184.59 230.245C184.59 224.961 189.791 218.794 190.655 206.909C191.52 195.024 191.087 189.269 191.087 189.269C191.087 189.269 209.637 219.198 222.582 220.962C235.526 222.726 243.292 210.4 238.545 193.672C233.798 176.943 213.087 163.302 204.897 152.291C196.706 141.281 178.143 141.266 168.656 141.266C159.168 141.266 154.421 137.746 152.692 131.145C150.964 124.545 150.971 111.3 150.971 111.3C150.971 111.3 139.748 118.342 120.766 110.418C120.766 110.418 122.495 134.629 120.334 138.15C118.173 141.671 115.176 145.257 102.231 145.257C89.2864 145.257 78.5026 147.903 72.466 154.077C66.4294 160.251 41.4042 184.889 34.9353 194.576C28.4665 204.263 31.9098 214.825 39.6753 218.787C47.4408 222.748 55.2062 219.22 60.8178 213.943C66.4294 208.666 84.1142 191.93 84.1142 191.93C84.1142 191.93 84.1142 202.058 88.8614 216.582C93.6086 231.105 97.5057 229.349 94.0336 239.911C90.5614 250.473 83.682 253.56 81.5281 267.201C80.238 275.053 79.6593 283.01 79.7993 290.971" fill="#54BD26"/>
<mask id="mask0_177_14093" style="mask-type:luminance" maskUnits="userSpaceOnUse" x="31" y="110" width="209" height="181">
<path d="M200.596 290.978C200.596 290.978 201.886 272.934 194.113 254.883C186.34 236.831 184.59 235.53 184.59 230.245C184.59 224.961 189.791 218.794 190.655 206.909C191.52 195.024 191.087 189.269 191.087 189.269C191.087 189.269 209.637 219.198 222.582 220.962C235.526 222.726 243.292 210.4 238.545 193.672C233.798 176.943 213.087 163.302 204.897 152.291C196.706 141.281 178.143 141.266 168.656 141.266C159.168 141.266 154.421 137.746 152.692 131.145C150.964 124.545 150.971 111.3 150.971 111.3C150.971 111.3 139.748 118.342 120.766 110.418C120.766 110.418 122.495 134.629 120.334 138.15C118.173 141.671 115.176 145.257 102.231 145.257C89.2864 145.257 78.5026 147.903 72.466 154.077C66.4294 160.251 41.4042 184.889 34.9353 194.576C28.4665 204.263 31.9098 214.825 39.6753 218.787C47.4408 222.748 55.2062 219.22 60.8178 213.943C66.4294 208.666 84.1142 191.93 84.1142 191.93C84.1142 191.93 84.1142 202.058 88.8614 216.582C93.6086 231.105 97.5057 229.349 94.0336 239.911C90.5614 250.473 83.682 253.56 81.5281 267.201C80.238 275.053 79.6593 283.01 79.7993 290.971" fill="white"/>
</mask>
<g mask="url(#mask0_177_14093)">
<g opacity="0.2">
<path d="M172.286 155.07C171.991 155.07 170.91 155.805 172.286 157.944C173.662 155.82 172.581 155.07 172.286 155.07Z" fill="black"/>
<path d="M206.863 155.07C206.568 155.07 205.487 155.805 206.863 157.944C208.239 155.82 207.159 155.07 206.863 155.07Z" fill="black"/>
<path d="M206.863 172.709C206.568 172.709 205.487 173.444 206.863 175.583C208.239 173.459 207.159 172.709 206.863 172.709Z" fill="black"/>
<path d="M172.286 172.709C171.991 172.709 170.91 173.444 172.286 175.583C173.662 173.459 172.581 172.709 172.286 172.709Z" fill="black"/>
<path d="M189.575 163.89C189.279 163.89 188.199 164.625 189.575 166.764C190.951 164.64 189.87 163.89 189.575 163.89Z" fill="black"/>
<path d="M189.575 146.25C189.279 146.25 188.199 146.985 189.575 149.124C190.951 147 189.87 146.25 189.575 146.25Z" fill="black"/>
<path d="M173.064 158.385C175.556 158.525 175.643 157.194 175.499 156.915C175.355 156.636 174.137 156.099 173.064 158.385Z" fill="black"/>
<path d="M209.752 157.878L208.794 156.871C208.268 157.252 207.859 157.776 207.612 158.385C208.363 158.51 209.132 158.328 209.752 157.878Z" fill="black"/>
<path d="M190.353 167.205C192.845 167.344 192.931 166.014 192.787 165.735C192.643 165.455 191.426 164.919 190.353 167.205Z" fill="black"/>
<path d="M190.353 149.565C192.845 149.705 192.931 148.374 192.787 148.095C192.643 147.816 191.426 147.279 190.353 149.565Z" fill="black"/>
<path d="M203.679 156.936C203.535 157.194 203.629 158.524 206.114 158.406C205.012 156.098 203.83 156.672 203.679 156.936Z" fill="black"/>
<path d="M203.679 174.577C203.629 174.763 203.638 174.961 203.705 175.143C203.773 175.324 203.895 175.478 204.054 175.584C204.667 175.977 205.398 176.134 206.114 176.024C206.046 175.873 205.969 175.726 205.884 175.584C204.853 173.82 203.823 174.327 203.679 174.577Z" fill="black"/>
<path d="M186.391 165.756C186.247 166.013 186.34 167.344 188.825 167.226C187.723 164.918 186.542 165.492 186.391 165.756Z" fill="black"/>
<path d="M186.391 148.117C186.247 148.374 186.34 149.704 188.825 149.587C187.723 147.279 186.542 147.852 186.391 148.117Z" fill="black"/>
<path d="M172.286 207.99C171.991 207.99 170.91 208.725 172.286 210.864C173.662 208.739 172.581 207.99 172.286 207.99Z" fill="black"/>
<path d="M206.863 207.99C206.647 207.99 206.028 208.387 206.222 209.408C206.525 209.739 206.827 210.07 207.137 210.393C208.073 208.629 207.137 207.99 206.863 207.99Z" fill="black"/>
<path d="M172.286 225.63C171.991 225.63 170.91 226.365 172.286 228.504C173.662 226.38 172.581 225.63 172.286 225.63Z" fill="black"/>
<path d="M224.152 216.809C223.857 216.809 222.776 217.544 224.152 219.683C225.528 217.559 224.447 216.809 224.152 216.809Z" fill="black"/>
<path d="M172.286 190.35C171.991 190.35 170.91 191.085 172.286 193.223C173.662 191.099 172.581 190.35 172.286 190.35Z" fill="black"/>
<path d="M206.863 190.35C206.568 190.35 205.487 191.085 206.863 193.223C208.239 191.099 207.159 190.35 206.863 190.35Z" fill="black"/>
<path d="M189.575 199.169C189.279 199.169 188.199 199.904 189.575 202.043C190.951 199.919 189.87 199.169 189.575 199.169Z" fill="black"/>
<path d="M224.152 199.169C223.857 199.169 222.776 199.904 224.152 202.043C225.528 199.919 224.447 199.169 224.152 199.169Z" fill="black"/>
<path d="M189.575 181.529C189.279 181.529 188.199 182.264 189.575 184.403C190.951 182.279 189.87 181.529 189.575 181.529Z" fill="black"/>
<path d="M224.152 181.529C223.857 181.529 222.776 182.264 224.152 184.403C225.528 182.279 224.447 181.529 224.152 181.529Z" fill="black"/>
<path d="M173.064 211.305C175.556 211.444 175.643 210.114 175.499 209.835C175.355 209.556 174.137 209.019 173.064 211.305Z" fill="black"/>
<path d="M207.749 211.04L208.009 211.312C210.105 211.312 210.17 210.099 210.047 209.842C209.925 209.584 208.808 209.07 207.749 211.04Z" fill="black"/>
<path d="M174.922 227.232C174.607 227.226 174.3 227.335 174.058 227.541C173.911 227.659 173.776 227.792 173.655 227.938C173.51 228.115 173.38 228.304 173.266 228.504C173.268 228.518 173.268 228.533 173.266 228.548C173.201 228.665 173.129 228.798 173.064 228.945C173.78 229.055 174.512 228.899 175.124 228.504C175.175 228.463 175.224 228.419 175.268 228.371C175.34 228.292 175.401 228.203 175.448 228.107C175.519 228.022 175.561 227.918 175.571 227.807C175.581 227.697 175.557 227.586 175.502 227.491C175.448 227.395 175.366 227.318 175.267 227.272C175.168 227.226 175.058 227.212 174.951 227.232H174.922Z" fill="black"/>
<path d="M224.93 220.124C227.415 220.264 227.509 218.933 227.365 218.654C227.221 218.375 226.003 217.838 224.93 220.124Z" fill="black"/>
<path d="M173.064 193.665C175.556 193.804 175.643 192.474 175.499 192.195C175.355 191.915 174.137 191.379 173.064 193.665Z" fill="black"/>
<path d="M210.047 192.217C209.896 191.952 208.715 191.379 207.612 193.687C210.098 193.804 210.191 192.474 210.047 192.217Z" fill="black"/>
<path d="M190.353 202.485C190.561 202.496 190.77 202.496 190.979 202.485C190.979 202.118 191.015 201.75 191.03 201.412C190.757 201.737 190.529 202.098 190.353 202.485Z" fill="black"/>
<path d="M224.93 202.485C227.415 202.624 227.509 201.294 227.365 201.015C227.221 200.735 226.003 200.199 224.93 202.485Z" fill="black"/>
<path d="M190.353 184.844C192.845 184.984 192.931 183.654 192.787 183.374C192.643 183.095 191.426 182.559 190.353 184.844Z" fill="black"/>
<path d="M224.93 184.844C227.415 184.984 227.509 183.654 227.365 183.374C227.221 183.095 226.003 182.559 224.93 184.844Z" fill="black"/>
<path d="M187.68 220.065L188.076 218.97C187.241 218.088 186.506 218.47 186.391 218.676C186.275 218.882 186.311 219.808 187.68 220.065Z" fill="black"/>
<path d="M238.256 209.857C238.202 210.067 238.221 210.29 238.309 210.488C238.397 210.686 238.549 210.847 238.739 210.944C238.89 210.518 239.02 210.077 239.142 209.629C238.989 209.576 238.824 209.569 238.667 209.61C238.509 209.65 238.367 209.736 238.256 209.857Z" fill="black"/>
<path d="M220.968 218.676C220.817 218.933 220.917 220.264 223.403 220.146C222.3 217.838 221.119 218.411 220.968 218.676Z" fill="black"/>
<path d="M203.679 192.217C203.535 192.474 203.629 193.804 206.114 193.687C205.012 191.379 203.83 191.952 203.679 192.217Z" fill="black"/>
<path d="M186.391 201.036C186.247 201.293 186.34 202.624 188.825 202.506C187.723 200.198 186.542 200.771 186.391 201.036Z" fill="black"/>
<path d="M220.968 201.036C220.817 201.293 220.917 202.624 223.403 202.506C222.3 200.198 221.119 200.771 220.968 201.036Z" fill="black"/>
<path d="M186.391 183.396C186.247 183.654 186.34 184.984 188.825 184.866C187.723 182.558 186.542 183.132 186.391 183.396Z" fill="black"/>
<path d="M220.968 183.396C220.817 183.654 220.917 184.984 223.403 184.866C222.3 182.558 221.119 183.132 220.968 183.396Z" fill="black"/>
<path d="M209.673 175.584C209.832 175.478 209.954 175.324 210.021 175.143C210.089 174.962 210.098 174.764 210.047 174.577C209.903 174.327 208.873 173.842 207.843 175.584C207.757 175.726 207.68 175.873 207.612 176.025C208.329 176.136 209.06 175.979 209.673 175.584Z" fill="black"/>
<path d="M175.095 175.584C175.255 175.478 175.377 175.324 175.444 175.143C175.511 174.962 175.52 174.764 175.47 174.577C175.326 174.327 174.296 173.842 173.266 175.584C173.18 175.726 173.103 175.873 173.035 176.025C173.752 176.136 174.483 175.979 175.095 175.584Z" fill="black"/>
<path d="M172.286 260.909C171.991 260.909 170.91 261.644 172.286 263.783C173.662 261.659 172.581 260.909 172.286 260.909Z" fill="black"/>
<path d="M172.286 278.549C171.991 278.549 170.91 279.284 172.286 281.423C173.662 279.299 172.581 278.549 172.286 278.549Z" fill="black"/>
<path d="M189.575 269.73C189.279 269.73 188.199 270.465 189.575 272.604C190.951 270.48 189.87 269.73 189.575 269.73Z" fill="black"/>
<path d="M172.286 243.269C171.991 243.269 170.91 244.004 172.286 246.143C173.662 244.019 172.581 243.269 172.286 243.269Z" fill="black"/>
<path d="M189.575 252.089C189.279 252.089 188.199 252.824 189.575 254.963C190.951 252.839 189.87 252.089 189.575 252.089Z" fill="black"/>
<path d="M173.064 264.224C175.556 264.364 175.643 263.034 175.499 262.754C175.355 262.475 174.137 261.938 173.064 264.224Z" fill="black"/>
<path d="M174.922 280.152H174.771C174.585 280.166 174.405 280.224 174.245 280.321L174.058 280.453C173.738 280.721 173.469 281.048 173.266 281.416C173.18 281.558 173.103 281.705 173.035 281.857C173.752 281.968 174.483 281.811 175.095 281.416C175.255 281.311 175.377 281.156 175.444 280.975C175.511 280.794 175.52 280.596 175.47 280.409C175.402 280.328 175.318 280.264 175.224 280.219C175.129 280.175 175.027 280.152 174.922 280.152Z" fill="black"/>
<path d="M190.353 273.045C192.845 273.184 192.931 271.854 192.787 271.575C192.643 271.295 191.426 270.759 190.353 273.045Z" fill="black"/>
<path d="M173.064 246.585C175.556 246.724 175.643 245.394 175.499 245.115C175.355 244.835 174.137 244.299 173.064 246.585Z" fill="black"/>
<path d="M190.353 255.404C192.845 255.544 192.931 254.214 192.787 253.934C192.643 253.655 191.426 253.119 190.353 255.404Z" fill="black"/>
<path d="M186.391 271.597C186.247 271.854 186.34 273.185 188.825 273.067C187.723 270.759 186.542 271.332 186.391 271.597Z" fill="black"/>
<path d="M186.391 253.957C186.247 254.214 186.34 255.544 188.825 255.427C187.723 253.119 186.542 253.692 186.391 253.957Z" fill="black"/>
<path d="M189.575 287.37C189.279 287.37 188.199 288.105 189.575 290.244C190.951 288.12 189.87 287.37 189.575 287.37Z" fill="black"/>
<path d="M190.353 290.685C192.845 290.825 192.931 289.495 192.787 289.215C192.643 288.936 191.426 288.399 190.353 290.685Z" fill="black"/>
<path d="M186.391 289.236C186.247 289.493 186.34 290.823 188.825 290.706C187.723 288.398 186.542 288.971 186.391 289.236Z" fill="black"/>
<path d="M137.709 119.79C137.413 119.79 136.333 120.525 137.709 122.663C139.085 120.539 138.004 119.79 137.709 119.79Z" fill="black"/>
<path d="M120.831 111.212C120.831 111.609 120.888 112.16 120.932 112.851C121.069 112.596 121.132 112.307 121.114 112.017C121.096 111.726 120.998 111.447 120.831 111.212Z" fill="black"/>
<path d="M140.345 121.392C140.03 121.385 139.723 121.495 139.481 121.701C139.334 121.819 139.199 121.952 139.078 122.098C138.933 122.275 138.803 122.464 138.689 122.664V122.708C138.624 122.825 138.552 122.958 138.487 123.105C139.203 123.215 139.935 123.059 140.547 122.664C140.598 122.623 140.646 122.579 140.691 122.531C140.763 122.452 140.824 122.363 140.871 122.267C140.922 122.175 140.953 122.072 140.962 121.967C140.97 121.862 140.957 121.756 140.922 121.657C140.852 121.571 140.763 121.502 140.663 121.456C140.564 121.41 140.455 121.388 140.345 121.392Z" fill="black"/>
<path d="M121.198 114.285C123.691 114.424 123.777 113.094 123.633 112.815C123.489 112.536 122.272 111.999 121.198 114.285Z" fill="black"/>
<path d="M103.794 155.885C103.782 155.773 103.75 155.663 103.701 155.562C103.68 155.516 103.656 155.472 103.629 155.429C103.583 155.358 103.527 155.293 103.463 155.238C103.411 155.193 103.353 155.156 103.29 155.128C103.246 155.104 103.196 155.092 103.146 155.092C103.096 155.092 103.046 155.104 103.002 155.128C102.671 155.275 102.13 155.863 102.735 157.23C102.855 157.485 102.993 157.73 103.146 157.965C103.3 157.73 103.437 157.485 103.557 157.23C103.727 156.885 103.82 156.506 103.83 156.12C103.834 156.052 103.834 155.983 103.83 155.915L103.794 155.885Z" fill="black"/>
<path d="M137.709 155.07C137.413 155.07 136.333 155.805 137.709 157.944C139.085 155.82 138.004 155.07 137.709 155.07Z" fill="black"/>
<path d="M137.709 172.709C137.413 172.709 136.333 173.444 137.709 175.583C139.085 173.459 138.004 172.709 137.709 172.709Z" fill="black"/>
<path d="M103.794 173.525C103.782 173.413 103.75 173.303 103.701 173.202C103.68 173.156 103.656 173.112 103.629 173.07C103.583 172.998 103.527 172.934 103.463 172.878C103.411 172.833 103.353 172.796 103.29 172.768C103.246 172.744 103.196 172.732 103.146 172.732C103.096 172.732 103.046 172.744 103.002 172.768C102.671 172.915 102.13 173.503 102.735 174.87C102.855 175.125 102.993 175.37 103.146 175.605C103.3 175.37 103.437 175.125 103.557 174.87C103.727 174.525 103.82 174.146 103.83 173.76C103.834 173.692 103.834 173.623 103.83 173.555L103.794 173.525Z" fill="black"/>
<path d="M120.42 163.89C120.125 163.89 119.044 164.625 120.42 166.764C121.796 164.64 120.716 163.89 120.42 163.89Z" fill="black"/>
<path d="M154.997 163.89C154.702 163.89 153.622 164.625 154.997 166.764C156.373 164.64 155.293 163.89 154.997 163.89Z" fill="black"/>
<path d="M137.709 137.43C137.413 137.43 136.333 138.165 137.709 140.304C139.085 138.179 138.004 137.43 137.709 137.43Z" fill="black"/>
<path d="M120.42 146.25C120.125 146.25 119.044 146.985 120.42 149.124C121.796 147 120.716 146.25 120.42 146.25Z" fill="black"/>
<path d="M154.997 146.25C154.702 146.25 153.622 146.985 154.997 149.124C156.373 147 155.293 146.25 154.997 146.25Z" fill="black"/>
<path d="M103.91 158.385C106.402 158.525 106.488 157.194 106.344 156.915C106.2 156.636 104.983 156.099 103.91 158.385Z" fill="black"/>
<path d="M138.487 158.385C140.972 158.525 141.066 157.194 140.922 156.915C140.778 156.636 139.56 156.099 138.487 158.385Z" fill="black"/>
<path d="M121.198 167.205C123.691 167.344 123.777 166.014 123.633 165.735C123.489 165.455 122.272 164.919 121.198 167.205Z" fill="black"/>
<path d="M155.775 167.205C158.261 167.344 158.354 166.014 158.21 165.735C158.066 165.455 156.849 164.919 155.775 167.205Z" fill="black"/>
<path d="M138.487 140.745C140.972 140.884 141.066 139.554 140.922 139.275C140.778 138.995 139.56 138.459 138.487 140.745Z" fill="black"/>
<path d="M121.198 149.565C123.691 149.705 123.777 148.374 123.633 148.095C123.489 147.816 122.272 147.279 121.198 149.565Z" fill="black"/>
<path d="M155.775 149.565C158.261 149.705 158.354 148.374 158.21 148.095C158.066 147.816 156.849 147.279 155.775 149.565Z" fill="black"/>
<path d="M123.604 130.476C123.46 130.226 122.408 129.741 121.364 131.542C121.364 131.674 121.364 131.799 121.364 131.924C123.655 132.027 123.748 130.726 123.604 130.476Z" fill="black"/>
<path d="M134.525 156.936C134.381 157.194 134.474 158.524 136.96 158.406C135.857 156.098 134.676 156.672 134.525 156.936Z" fill="black"/>
<path d="M134.525 174.577C134.474 174.763 134.483 174.961 134.551 175.143C134.618 175.324 134.74 175.478 134.899 175.584C135.512 175.977 136.243 176.134 136.96 176.024C136.892 175.873 136.815 175.726 136.729 175.584C135.699 173.82 134.669 174.327 134.525 174.577Z" fill="black"/>
<path d="M117.236 165.756C117.092 166.013 117.186 167.344 119.671 167.226C118.569 164.918 117.388 165.492 117.236 165.756Z" fill="black"/>
<path d="M169.102 156.936C168.951 157.194 169.052 158.524 171.537 158.406C170.435 156.098 169.253 156.672 169.102 156.936Z" fill="black"/>
<path d="M171.306 175.584C170.276 173.82 169.246 174.327 169.102 174.577C169.052 174.763 169.061 174.961 169.128 175.143C169.195 175.324 169.317 175.478 169.477 175.584C170.089 175.979 170.82 176.135 171.537 176.024C171.469 175.873 171.392 175.726 171.306 175.584Z" fill="black"/>
<path d="M151.814 165.756C151.662 166.013 151.763 167.344 154.248 167.226C153.146 164.918 151.965 165.492 151.814 165.756Z" fill="black"/>
<path d="M134.525 139.297C134.381 139.554 134.474 140.884 136.96 140.767C135.857 138.459 134.676 139.032 134.525 139.297Z" fill="black"/>
<path d="M117.236 148.117C117.092 148.374 117.186 149.704 119.671 149.587C118.569 147.279 117.388 147.852 117.236 148.117Z" fill="black"/>
<path d="M151.814 148.117C151.662 148.374 151.763 149.704 154.248 149.587C153.146 147.279 151.965 147.852 151.814 148.117Z" fill="black"/>
<path d="M152.894 131.814C152.829 131.608 152.764 131.41 152.707 131.197C152.649 130.984 152.548 130.557 152.476 130.212C152.353 130.198 152.228 130.214 152.113 130.261C151.997 130.307 151.895 130.381 151.813 130.476C151.698 130.675 151.734 131.513 152.894 131.814Z" fill="black"/>
<path d="M136.729 122.663C136.615 122.464 136.485 122.275 136.34 122.097C136.22 121.95 136.085 121.817 135.937 121.701C135.694 121.495 135.387 121.385 135.072 121.392C134.968 121.393 134.864 121.417 134.77 121.463C134.675 121.508 134.592 121.574 134.525 121.656C134.49 121.756 134.476 121.862 134.485 121.967C134.493 122.072 134.524 122.175 134.575 122.267C134.623 122.363 134.683 122.452 134.755 122.531L134.899 122.663C135.512 123.057 136.243 123.214 136.96 123.104C136.895 122.957 136.823 122.825 136.758 122.708L136.729 122.663Z" fill="black"/>
<path d="M103.794 208.806C103.782 208.694 103.75 208.584 103.701 208.483C103.68 208.437 103.656 208.393 103.629 208.35C103.583 208.279 103.527 208.214 103.463 208.159C103.411 208.114 103.353 208.077 103.29 208.049C103.246 208.025 103.196 208.013 103.146 208.013C103.096 208.013 103.046 208.025 103.002 208.049C102.671 208.196 102.13 208.784 102.735 210.151C102.855 210.406 102.993 210.651 103.146 210.886C103.3 210.651 103.437 210.406 103.557 210.151C103.727 209.806 103.82 209.427 103.83 209.041C103.834 208.973 103.834 208.904 103.83 208.835L103.794 208.806Z" fill="black"/>
<path d="M137.709 207.99C137.413 207.99 136.333 208.725 137.709 210.864C139.085 208.739 138.004 207.99 137.709 207.99Z" fill="black"/>
<path d="M137.709 225.63C137.413 225.63 136.333 226.365 137.709 228.504C139.085 226.38 138.004 225.63 137.709 225.63Z" fill="black"/>
<path d="M103.794 226.446C103.782 226.334 103.75 226.224 103.701 226.123C103.68 226.077 103.656 226.033 103.629 225.99C103.583 225.919 103.527 225.854 103.463 225.799C103.411 225.754 103.353 225.717 103.29 225.689C103.246 225.665 103.196 225.652 103.146 225.652C103.096 225.652 103.046 225.665 103.002 225.689C102.671 225.836 102.13 226.424 102.735 227.791C102.855 228.046 102.993 228.291 103.146 228.526C103.3 228.291 103.437 228.046 103.557 227.791C103.727 227.446 103.82 227.067 103.83 226.681C103.834 226.613 103.834 226.544 103.83 226.476L103.794 226.446Z" fill="black"/>
<path d="M120.42 216.809C120.125 216.809 119.044 217.544 120.42 219.683C121.796 217.559 120.716 216.809 120.42 216.809Z" fill="black"/>
<path d="M154.997 216.809C154.702 216.809 153.622 217.544 154.997 219.683C156.373 217.559 155.293 216.809 154.997 216.809Z" fill="black"/>
<path d="M103.794 191.166C103.782 191.053 103.75 190.944 103.701 190.842C103.68 190.797 103.656 190.752 103.629 190.71C103.583 190.639 103.527 190.574 103.463 190.519C103.411 190.474 103.353 190.436 103.29 190.409C103.246 190.385 103.196 190.373 103.146 190.373C103.096 190.373 103.046 190.385 103.002 190.409C102.671 190.556 102.13 191.144 102.735 192.511C102.855 192.765 102.993 193.011 103.146 193.246C103.3 193.011 103.437 192.765 103.557 192.511C103.727 192.166 103.82 191.787 103.83 191.401C103.834 191.333 103.834 191.264 103.83 191.195L103.794 191.166Z" fill="black"/>
<path d="M137.709 190.35C137.413 190.35 136.333 191.085 137.709 193.223C139.085 191.099 138.004 190.35 137.709 190.35Z" fill="black"/>
<path d="M120.42 199.169C120.125 199.169 119.044 199.904 120.42 202.043C121.796 199.919 120.716 199.169 120.42 199.169Z" fill="black"/>
<path d="M154.997 199.169C154.702 199.169 153.622 199.904 154.997 202.043C156.373 199.919 155.293 199.169 154.997 199.169Z" fill="black"/>
<path d="M120.42 181.529C120.125 181.529 119.044 182.264 120.42 184.403C121.796 182.279 120.716 181.529 120.42 181.529Z" fill="black"/>
<path d="M154.997 181.529C154.702 181.529 153.622 182.264 154.997 184.403C156.373 182.279 155.293 181.529 154.997 181.529Z" fill="black"/>
<path d="M103.91 211.305C106.402 211.444 106.488 210.114 106.344 209.835C106.2 209.556 104.983 209.019 103.91 211.305Z" fill="black"/>
<path d="M138.487 211.305C140.972 211.444 141.066 210.114 140.922 209.835C140.778 209.556 139.56 209.019 138.487 211.305Z" fill="black"/>
<path d="M140.345 227.232C140.03 227.225 139.723 227.335 139.481 227.541C139.334 227.659 139.199 227.792 139.078 227.937C138.933 228.115 138.803 228.304 138.689 228.503V228.547C138.624 228.665 138.552 228.797 138.487 228.944C139.203 229.055 139.935 228.898 140.547 228.503C140.598 228.463 140.646 228.419 140.691 228.371C140.763 228.292 140.824 228.203 140.871 228.106C140.922 228.014 140.953 227.912 140.962 227.807C140.97 227.702 140.957 227.596 140.922 227.496C140.852 227.411 140.763 227.342 140.663 227.296C140.564 227.25 140.455 227.228 140.345 227.232Z" fill="black"/>
<path d="M105.768 227.232C105.453 227.226 105.146 227.335 104.904 227.541C104.757 227.659 104.622 227.792 104.5 227.938C104.356 228.115 104.225 228.304 104.111 228.504V228.548C104.046 228.665 103.974 228.798 103.91 228.945C104.626 229.055 105.357 228.899 105.97 228.504C106.021 228.463 106.069 228.419 106.114 228.371C106.186 228.292 106.246 228.203 106.294 228.107C106.364 228.022 106.407 227.918 106.417 227.807C106.426 227.697 106.402 227.586 106.348 227.491C106.293 227.395 106.211 227.318 106.113 227.272C106.014 227.226 105.904 227.212 105.797 227.232H105.768Z" fill="black"/>
<path d="M121.198 220.124C123.691 220.264 123.777 218.933 123.633 218.654C123.489 218.375 122.272 217.838 121.198 220.124Z" fill="black"/>
<path d="M155.775 220.124C158.261 220.264 158.354 218.933 158.21 218.654C158.066 218.375 156.849 217.838 155.775 220.124Z" fill="black"/>
<path d="M103.91 193.665C106.402 193.804 106.488 192.474 106.344 192.195C106.2 191.915 104.983 191.379 103.91 193.665Z" fill="black"/>
<path d="M138.487 193.665C140.972 193.804 141.066 192.474 140.922 192.195C140.778 191.915 139.56 191.379 138.487 193.665Z" fill="black"/>
<path d="M121.198 202.485C123.691 202.624 123.777 201.294 123.633 201.015C123.489 200.735 122.272 200.199 121.198 202.485Z" fill="black"/>
<path d="M155.775 202.485C158.261 202.624 158.354 201.294 158.21 201.015C158.066 200.735 156.849 200.199 155.775 202.485Z" fill="black"/>
<path d="M121.198 184.844C123.691 184.984 123.777 183.654 123.633 183.374C123.489 183.095 122.272 182.559 121.198 184.844Z" fill="black"/>
<path d="M155.775 184.844C158.261 184.984 158.354 183.654 158.21 183.374C158.066 183.095 156.849 182.559 155.775 184.844Z" fill="black"/>
<path d="M134.525 209.857C134.381 210.114 134.474 211.444 136.96 211.327C135.857 209.019 134.676 209.592 134.525 209.857Z" fill="black"/>
<path d="M117.236 218.676C117.092 218.933 117.186 220.264 119.671 220.146C118.569 217.838 117.388 218.411 117.236 218.676Z" fill="black"/>
<path d="M169.102 209.857C168.951 210.114 169.052 211.444 171.537 211.327C170.435 209.019 169.253 209.592 169.102 209.857Z" fill="black"/>
<path d="M151.814 218.676C151.662 218.933 151.763 220.264 154.248 220.146C153.146 217.838 151.965 218.411 151.814 218.676Z" fill="black"/>
<path d="M107.216 230.709C107.216 230.709 125.945 235.611 149.472 216.994C172.999 198.376 182.133 205.719 181.168 218.949C180.203 232.179 160.04 244.431 151.396 245.901C137.183 248.319 124.505 252.274 107.216 230.709Z" fill="black"/>
<path d="M134.525 192.217C134.381 192.474 134.474 193.804 136.96 193.687C135.857 191.379 134.676 191.952 134.525 192.217Z" fill="black"/>
<path d="M117.236 201.036C117.092 201.293 117.186 202.624 119.671 202.506C118.569 200.198 117.388 200.771 117.236 201.036Z" fill="black"/>
<path d="M169.102 192.217C168.951 192.474 169.052 193.804 171.537 193.687C170.435 191.379 169.253 191.952 169.102 192.217Z" fill="black"/>
<path d="M151.814 201.036C151.662 201.293 151.763 202.624 154.248 202.506C153.146 200.198 151.965 200.771 151.814 201.036Z" fill="black"/>
<path d="M117.236 183.396C117.092 183.654 117.186 184.984 119.671 184.866C118.569 182.558 117.388 183.132 117.236 183.396Z" fill="black"/>
<path d="M151.814 183.396C151.662 183.654 151.763 184.984 154.248 184.866C153.146 182.558 151.965 183.132 151.814 183.396Z" fill="black"/>
<path d="M140.518 175.584C140.677 175.478 140.8 175.324 140.867 175.143C140.934 174.962 140.943 174.764 140.893 174.577C140.749 174.327 139.719 173.842 138.689 175.584C138.603 175.726 138.526 175.873 138.458 176.025C139.174 176.136 139.906 175.979 140.518 175.584Z" fill="black"/>
<path d="M105.941 175.584C106.1 175.478 106.222 175.324 106.29 175.143C106.357 174.962 106.366 174.764 106.316 174.577C106.172 174.327 105.141 173.842 104.111 175.584C104.026 175.726 103.949 175.873 103.881 176.025C104.597 176.136 105.329 175.979 105.941 175.584Z" fill="black"/>
<path d="M103.794 261.725C103.782 261.612 103.75 261.503 103.701 261.402C103.68 261.356 103.656 261.312 103.629 261.269C103.583 261.198 103.527 261.133 103.463 261.078C103.411 261.033 103.353 260.995 103.29 260.968C103.246 260.943 103.196 260.931 103.146 260.931C103.096 260.931 103.046 260.943 103.002 260.968C102.671 261.115 102.13 261.703 102.735 263.07C102.855 263.324 102.993 263.57 103.146 263.805C103.3 263.57 103.437 263.324 103.557 263.07C103.727 262.725 103.82 262.346 103.83 261.96C103.834 261.892 103.834 261.823 103.83 261.754L103.794 261.725Z" fill="black"/>
<path d="M137.709 260.909C137.413 260.909 136.333 261.644 137.709 263.783C139.085 261.659 138.004 260.909 137.709 260.909Z" fill="black"/>
<path d="M137.709 278.549C137.413 278.549 136.333 279.284 137.709 281.423C139.085 279.299 138.004 278.549 137.709 278.549Z" fill="black"/>
<path d="M103.794 279.365C103.782 279.253 103.75 279.143 103.701 279.042C103.68 278.996 103.656 278.952 103.629 278.909C103.583 278.838 103.527 278.773 103.463 278.718C103.411 278.673 103.353 278.636 103.29 278.608C103.246 278.584 103.196 278.571 103.146 278.571C103.096 278.571 103.046 278.584 103.002 278.608C102.671 278.755 102.13 279.343 102.735 280.71C102.855 280.965 102.993 281.21 103.146 281.445C103.3 281.21 103.437 280.965 103.557 280.71C103.727 280.365 103.82 279.986 103.83 279.6C103.834 279.532 103.834 279.463 103.83 279.394L103.794 279.365Z" fill="black"/>
<path d="M120.42 269.73C120.125 269.73 119.044 270.465 120.42 272.604C121.796 270.48 120.716 269.73 120.42 269.73Z" fill="black"/>
<path d="M154.997 269.73C154.702 269.73 153.622 270.465 154.997 272.604C156.373 270.48 155.293 269.73 154.997 269.73Z" fill="black"/>
<path d="M103.794 244.085C103.782 243.973 103.75 243.863 103.701 243.762C103.68 243.716 103.656 243.672 103.629 243.63C103.583 243.558 103.527 243.494 103.463 243.438C103.411 243.393 103.353 243.356 103.29 243.328C103.246 243.304 103.196 243.291 103.146 243.291C103.096 243.291 103.046 243.304 103.002 243.328C102.671 243.475 102.13 244.063 102.735 245.43C102.855 245.685 102.993 245.93 103.146 246.165C103.3 245.93 103.437 245.685 103.557 245.43C103.727 245.085 103.82 244.706 103.83 244.321C103.834 244.252 103.834 244.183 103.83 244.115L103.794 244.085Z" fill="black"/>
<path d="M137.709 243.269C137.413 243.269 136.333 244.004 137.709 246.143C139.085 244.019 138.004 243.269 137.709 243.269Z" fill="black"/>
<path d="M120.42 252.089C120.125 252.089 119.044 252.824 120.42 254.963C121.796 252.839 120.716 252.089 120.42 252.089Z" fill="black"/>
<path d="M154.997 252.089C154.702 252.089 153.622 252.824 154.997 254.963C156.373 252.839 155.293 252.089 154.997 252.089Z" fill="black"/>
<path d="M120.42 234.449C120.125 234.449 119.044 235.184 120.42 237.323C121.796 235.199 120.716 234.449 120.42 234.449Z" fill="black"/>
<path d="M154.997 234.449C154.702 234.449 153.622 235.184 154.997 237.323C156.373 235.199 155.293 234.449 154.997 234.449Z" fill="black"/>
<path d="M103.91 264.224C106.402 264.364 106.488 263.034 106.344 262.754C106.2 262.475 104.983 261.938 103.91 264.224Z" fill="black"/>
<path d="M138.487 264.224C140.972 264.364 141.066 263.034 140.922 262.754C140.778 262.475 139.56 261.938 138.487 264.224Z" fill="black"/>
<path d="M140.345 280.152H140.194C140.008 280.166 139.828 280.224 139.668 280.321L139.481 280.453C139.16 280.721 138.892 281.048 138.689 281.416C138.603 281.558 138.526 281.705 138.458 281.857C139.174 281.968 139.906 281.811 140.518 281.416C140.677 281.311 140.8 281.156 140.867 280.975C140.934 280.794 140.943 280.596 140.893 280.409C140.825 280.328 140.741 280.264 140.647 280.219C140.552 280.175 140.449 280.152 140.345 280.152Z" fill="black"/>
<path d="M105.768 280.152H105.617C105.431 280.166 105.251 280.224 105.091 280.321L104.904 280.453C104.583 280.721 104.314 281.048 104.111 281.416C104.026 281.558 103.949 281.705 103.881 281.857C104.597 281.968 105.329 281.811 105.941 281.416C106.1 281.311 106.222 281.156 106.29 280.975C106.357 280.794 106.366 280.596 106.316 280.409C106.248 280.328 106.164 280.264 106.07 280.219C105.975 280.175 105.872 280.152 105.768 280.152Z" fill="black"/>
<path d="M121.198 273.045C123.691 273.184 123.777 271.854 123.633 271.575C123.489 271.295 122.272 270.759 121.198 273.045Z" fill="black"/>
<path d="M155.775 273.045C158.261 273.184 158.354 271.854 158.21 271.575C158.066 271.295 156.849 270.759 155.775 273.045Z" fill="black"/>
<path d="M103.91 246.585C106.402 246.724 106.488 245.394 106.344 245.115C106.2 244.835 104.983 244.299 103.91 246.585Z" fill="black"/>
<path d="M138.487 246.585C140.972 246.724 141.066 245.394 140.922 245.115C140.778 244.835 139.56 244.299 138.487 246.585Z" fill="black"/>
<path d="M121.198 255.404C123.691 255.544 123.777 254.214 123.633 253.934C123.489 253.655 122.272 253.119 121.198 255.404Z" fill="black"/>
<path d="M155.775 255.404C158.261 255.544 158.354 254.214 158.21 253.934C158.066 253.655 156.849 253.119 155.775 255.404Z" fill="black"/>
<path d="M121.198 237.764C123.691 237.904 123.777 236.574 123.633 236.294C123.489 236.015 122.272 235.478 121.198 237.764Z" fill="black"/>
<path d="M155.775 237.764C158.261 237.904 158.354 236.574 158.21 236.294C158.066 236.015 156.849 235.478 155.775 237.764Z" fill="black"/>
<path d="M134.525 262.776C134.381 263.033 134.474 264.364 136.96 264.246C135.857 261.938 134.676 262.512 134.525 262.776Z" fill="black"/>
<path d="M135.937 280.497L135.749 280.365C135.59 280.266 135.41 280.208 135.224 280.196H135.072C134.968 280.197 134.865 280.221 134.77 280.267C134.675 280.312 134.592 280.378 134.525 280.46C134.474 280.647 134.483 280.845 134.551 281.026C134.618 281.207 134.74 281.362 134.899 281.467C135.512 281.861 136.243 282.018 136.96 281.908C136.892 281.757 136.815 281.609 136.729 281.467C136.529 281.095 136.26 280.765 135.937 280.497Z" fill="black"/>
<path d="M117.236 271.597C117.092 271.854 117.186 273.185 119.671 273.067C118.569 270.759 117.388 271.332 117.236 271.597Z" fill="black"/>
<path d="M169.102 262.776C168.951 263.033 169.052 264.364 171.537 264.246C170.435 261.938 169.253 262.512 169.102 262.776Z" fill="black"/>
<path d="M171.306 281.423C171.103 281.055 170.835 280.728 170.514 280.461L170.327 280.328C170.167 280.231 169.987 280.173 169.801 280.159H169.65C169.545 280.16 169.442 280.184 169.347 280.23C169.253 280.276 169.169 280.342 169.102 280.424C169.052 280.61 169.061 280.809 169.128 280.99C169.195 281.171 169.317 281.325 169.477 281.431C170.089 281.826 170.82 281.982 171.537 281.872C171.469 281.72 171.392 281.573 171.306 281.431V281.423Z" fill="black"/>
<path d="M151.814 271.597C151.662 271.854 151.763 273.185 154.248 273.067C153.146 270.759 151.965 271.332 151.814 271.597Z" fill="black"/>
<path d="M134.525 245.136C134.381 245.393 134.474 246.724 136.96 246.606C135.857 244.298 134.676 244.871 134.525 245.136Z" fill="black"/>
<path d="M117.236 253.957C117.092 254.214 117.186 255.544 119.671 255.427C118.569 253.119 117.388 253.692 117.236 253.957Z" fill="black"/>
<path d="M169.102 245.136C168.951 245.393 169.052 246.724 171.537 246.606C170.435 244.298 169.253 244.871 169.102 245.136Z" fill="black"/>
<path d="M151.814 253.957C151.662 254.214 151.763 255.544 154.248 255.427C153.146 253.119 151.965 253.692 151.814 253.957Z" fill="black"/>
<path d="M117.236 236.317C117.092 236.574 117.186 237.904 119.671 237.787C118.569 235.479 117.388 236.052 117.236 236.317Z" fill="black"/>
<path d="M151.814 236.317C151.662 236.574 151.763 237.904 154.248 237.787C153.146 235.479 151.965 236.052 151.814 236.317Z" fill="black"/>
<path d="M136.729 228.503C136.615 228.304 136.485 228.115 136.34 227.937C136.22 227.79 136.085 227.657 135.937 227.54C135.694 227.335 135.387 227.225 135.072 227.232C134.968 227.233 134.864 227.257 134.77 227.302C134.675 227.348 134.592 227.414 134.525 227.496C134.49 227.596 134.476 227.702 134.485 227.807C134.493 227.912 134.524 228.014 134.575 228.106C134.623 228.203 134.683 228.292 134.755 228.371L134.899 228.503C135.512 228.897 136.243 229.054 136.96 228.944C136.895 228.797 136.823 228.665 136.758 228.547L136.729 228.503Z" fill="black"/>
<path d="M171.306 228.503C171.192 228.304 171.062 228.115 170.917 227.937C170.796 227.792 170.661 227.659 170.514 227.54C170.271 227.335 169.965 227.225 169.649 227.232C169.545 227.233 169.442 227.257 169.347 227.302C169.253 227.348 169.169 227.414 169.102 227.496C169.067 227.596 169.053 227.702 169.062 227.807C169.071 227.912 169.102 228.014 169.152 228.106C169.2 228.203 169.261 228.292 169.333 228.371C169.377 228.419 169.425 228.463 169.477 228.503C170.089 228.898 170.82 229.055 171.537 228.944C171.472 228.797 171.4 228.665 171.335 228.547C171.323 228.534 171.313 228.52 171.306 228.503Z" fill="black"/>
<path d="M120.42 287.37C120.125 287.37 119.044 288.105 120.42 290.244C121.796 288.12 120.716 287.37 120.42 287.37Z" fill="black"/>
<path d="M154.997 287.37C154.702 287.37 153.622 288.105 154.997 290.244C156.373 288.12 155.293 287.37 154.997 287.37Z" fill="black"/>
<path d="M121.198 290.685C123.691 290.825 123.777 289.495 123.633 289.215C123.489 288.936 122.272 288.399 121.198 290.685Z" fill="black"/>
<path d="M155.775 290.685C158.261 290.825 158.354 289.495 158.21 289.215C158.066 288.936 156.849 288.399 155.775 290.685Z" fill="black"/>
<path d="M117.236 289.236C117.092 289.493 117.186 290.823 119.671 290.706C118.569 288.398 117.388 288.971 117.236 289.236Z" fill="black"/>
<path d="M151.814 289.236C151.662 289.493 151.763 290.823 154.248 290.706C153.146 288.398 151.965 288.971 151.814 289.236Z" fill="black"/>
<path d="M68.5544 172.709C68.2591 172.709 67.1785 173.444 68.5544 175.583C69.9303 173.459 68.8498 172.709 68.5544 172.709Z" fill="black"/>
<path d="M85.843 163.89C85.5476 163.89 84.4671 164.625 85.843 166.764C87.2189 164.64 86.1383 163.89 85.843 163.89Z" fill="black"/>
<path d="M86.4769 146.926L85.1587 147.271C85.2027 147.944 85.4408 148.588 85.843 149.123C86.513 148.094 86.621 147.381 86.4769 146.926Z" fill="black"/>
<path d="M69.3324 158.385C71.8176 158.525 71.9113 157.194 71.7672 156.915C71.6231 156.636 70.4057 156.099 69.3324 158.385Z" fill="black"/>
<path d="M86.621 167.205C89.1062 167.344 89.1999 166.014 89.0558 165.735C88.9117 165.455 87.6943 164.919 86.621 167.205Z" fill="black"/>
<path d="M86.621 149.565C89.1062 149.705 89.1999 148.374 89.0558 148.095C88.9117 147.816 87.6943 147.279 86.621 149.565Z" fill="black"/>
<path d="M65.3705 174.577C65.32 174.763 65.329 174.961 65.3964 175.143C65.4637 175.324 65.5859 175.478 65.7451 175.584C66.3579 175.977 67.0889 176.134 67.8053 176.024C67.7373 175.873 67.6603 175.726 67.5748 175.584C66.5447 173.82 65.5145 174.327 65.3705 174.577Z" fill="black"/>
<path d="M99.9477 156.936C99.7964 157.194 99.8972 158.524 102.382 158.406C101.28 156.098 100.099 156.672 99.9477 156.936Z" fill="black"/>
<path d="M102.152 175.584C101.122 173.82 100.092 174.327 99.9476 174.577C99.8971 174.763 99.9062 174.961 99.9735 175.143C100.041 175.324 100.163 175.478 100.322 175.584C100.935 175.979 101.666 176.135 102.382 176.024C102.314 175.873 102.237 175.726 102.152 175.584Z" fill="black"/>
<path d="M82.659 165.756C82.5077 166.013 82.6085 167.344 85.0938 167.226C83.9916 164.918 82.8102 165.492 82.659 165.756Z" fill="black"/>
<path d="M83.1848 147.859L82.8102 147.977C82.7505 148.012 82.6989 148.059 82.659 148.116C82.5077 148.374 82.6085 149.704 85.0938 149.586C84.395 148.109 83.6675 147.815 83.1848 147.859Z" fill="black"/>
<path d="M33.9771 207.99C33.6818 207.99 32.6012 208.725 33.9771 210.864C35.353 208.739 34.2725 207.99 33.9771 207.99Z" fill="black"/>
<path d="M51.2658 216.809C50.9705 216.809 49.8899 217.544 51.2658 219.683C52.6417 217.559 51.5612 216.809 51.2658 216.809Z" fill="black"/>
<path d="M68.5544 190.35C68.2591 190.35 67.1785 191.085 68.5544 193.223C69.9303 191.099 68.8498 190.35 68.5544 190.35Z" fill="black"/>
<path d="M51.2658 199.169C50.9705 199.169 49.8899 199.904 51.2658 202.043C52.6417 199.919 51.5612 199.169 51.2658 199.169Z" fill="black"/>
<path d="M85.843 199.169C85.5476 199.169 84.4671 199.904 85.843 202.043C87.2189 199.919 86.1383 199.169 85.843 199.169Z" fill="black"/>
<path d="M51.2658 181.529C50.9705 181.529 49.8899 182.264 51.2658 184.403C52.6417 182.279 51.5612 181.529 51.2658 181.529Z" fill="black"/>
<path d="M85.843 181.529C85.5476 181.529 84.4671 182.264 85.843 184.403C87.2189 182.279 86.1383 181.529 85.843 181.529Z" fill="black"/>
<path d="M34.7551 211.305C37.2476 211.444 37.3412 210.114 37.1899 209.835C37.0387 209.556 35.8285 209.019 34.7551 211.305Z" fill="black"/>
<path d="M52.4399 219.375C53.0811 219.132 53.7078 218.86 54.3273 218.552C54.0247 218.346 53.2467 218.206 52.4399 219.375Z" fill="black"/>
<path d="M37.1612 192.217C37.0762 192.106 36.9568 192.028 36.8226 191.996C36.376 192.577 35.951 193.128 35.5836 193.65C37.2332 193.473 37.2909 192.444 37.1612 192.217Z" fill="black"/>
<path d="M69.3324 193.665C71.8176 193.804 71.9113 192.474 71.7672 192.195C71.6231 191.915 70.4057 191.379 69.3324 193.665Z" fill="black"/>
<path d="M52.0437 202.485C54.5361 202.624 54.6226 201.294 54.4785 201.015C54.3344 200.735 53.117 200.199 52.0437 202.485Z" fill="black"/>
<path d="M86.621 202.485C89.1062 202.624 89.1999 201.294 89.0558 201.015C88.9117 200.735 87.6943 200.199 86.621 202.485Z" fill="black"/>
<path d="M52.0437 184.844C54.5361 184.984 54.6226 183.654 54.4785 183.374C54.3344 183.095 53.117 182.559 52.0437 184.844Z" fill="black"/>
<path d="M86.621 184.844C89.1062 184.984 89.1999 183.654 89.0558 183.374C88.9117 183.095 87.6943 182.559 86.621 184.844Z" fill="black"/>
<path d="M48.0818 218.676C47.9449 218.912 48.017 220.029 49.9115 220.146L50.4518 220.022C49.3712 217.868 48.2331 218.419 48.0818 218.676Z" fill="black"/>
<path d="M99.9477 209.857C99.7964 210.114 99.8972 211.444 102.382 211.327C101.28 209.019 100.099 209.592 99.9477 209.857Z" fill="black"/>
<path d="M65.3704 192.217C65.2263 192.474 65.32 193.804 67.8052 193.687C66.7031 191.379 65.5217 191.952 65.3704 192.217Z" fill="black"/>
<path d="M48.0818 201.036C47.9378 201.293 48.0314 202.624 50.5166 202.506C49.4145 200.198 48.2331 200.771 48.0818 201.036Z" fill="black"/>
<path d="M99.9477 192.217C99.7964 192.474 99.8972 193.804 102.382 193.687C101.28 191.379 100.099 191.952 99.9477 192.217Z" fill="black"/>
<path d="M48.0818 183.396C47.9378 183.654 48.0314 184.984 50.5166 184.866C49.4145 182.558 48.2331 183.132 48.0818 183.396Z" fill="black"/>
<path d="M82.659 183.396C82.5077 183.654 82.6085 184.984 85.0938 184.866C83.9916 182.558 82.8102 183.132 82.659 183.396Z" fill="black"/>
<path d="M71.3638 175.584C71.523 175.478 71.6451 175.324 71.7125 175.143C71.7798 174.962 71.7889 174.764 71.7384 174.577C71.5943 174.327 70.5642 173.842 69.5341 175.584C69.4485 175.726 69.3716 175.873 69.3036 176.025C70.02 176.136 70.7514 175.979 71.3638 175.584Z" fill="black"/>
<path d="M85.843 269.73C85.5476 269.73 84.4671 270.465 85.843 272.604C87.2189 270.48 86.1383 269.73 85.843 269.73Z" fill="black"/>
<path d="M86.3977 253.846L85.7926 254.883L85.843 254.963C86.076 254.618 86.2626 254.242 86.3977 253.846Z" fill="black"/>
<path d="M86.621 273.045C89.1062 273.184 89.1999 271.854 89.0558 271.575C88.9117 271.295 87.6943 270.759 86.621 273.045Z" fill="black"/>
<path d="M86.621 255.404C89.1062 255.544 89.1999 254.214 89.0558 253.934C88.9117 253.655 87.6943 253.119 86.621 255.404Z" fill="black"/>
<path d="M99.9477 262.776C99.7964 263.033 99.8972 264.364 102.382 264.246C101.28 261.938 100.099 262.512 99.9477 262.776Z" fill="black"/>
<path d="M102.152 281.423C101.949 281.055 101.68 280.728 101.36 280.461L101.172 280.328C101.012 280.231 100.832 280.173 100.646 280.159H100.495C100.39 280.16 100.287 280.184 100.193 280.23C100.098 280.276 100.015 280.342 99.9476 280.424C99.8971 280.61 99.9062 280.809 99.9735 280.99C100.041 281.171 100.163 281.325 100.322 281.431C100.935 281.826 101.666 281.982 102.382 281.872C102.314 281.72 102.237 281.573 102.152 281.431V281.423Z" fill="black"/>
<path d="M82.659 271.597C82.5077 271.854 82.6085 273.185 85.0938 273.067C83.9916 270.759 82.8102 271.332 82.659 271.597Z" fill="black"/>
<path d="M99.9477 245.136C99.7964 245.393 99.8972 246.724 102.382 246.606C101.28 244.298 100.099 244.871 99.9477 245.136Z" fill="black"/>
<path d="M102.152 228.503C102.038 228.304 101.908 228.115 101.763 227.937C101.641 227.792 101.506 227.659 101.359 227.54C101.117 227.335 100.81 227.225 100.495 227.232C100.39 227.233 100.287 227.257 100.193 227.302C100.098 227.348 100.015 227.414 99.9476 227.496C99.9125 227.596 99.8989 227.702 99.9076 227.807C99.9163 227.912 99.9471 228.014 99.998 228.106C100.046 228.203 100.106 228.292 100.178 228.371C100.223 228.419 100.271 228.463 100.322 228.503C100.935 228.898 101.666 229.055 102.382 228.944C102.318 228.797 102.246 228.665 102.181 228.547L102.152 228.503Z" fill="black"/>
<path d="M85.843 287.37C85.5476 287.37 84.4671 288.105 85.843 290.244C87.2189 288.12 86.1383 287.37 85.843 287.37Z" fill="black"/>
<path d="M86.621 290.685C89.1062 290.825 89.1999 289.495 89.0558 289.215C88.9117 288.936 87.6943 288.399 86.621 290.685Z" fill="black"/>
<path d="M82.659 289.236C82.5077 289.493 82.6085 290.823 85.0938 290.706C83.9916 288.398 82.8102 288.971 82.659 289.236Z" fill="black"/>
<path d="M32.2843 209.975C32.4274 210.429 32.5933 210.875 32.7814 211.312H33.228C33.0092 210.804 32.6876 210.348 32.2843 209.975Z" fill="black"/>
</g>
</g>
<path d="M200.596 290.978C200.596 290.978 201.886 272.934 194.113 254.883C186.34 236.831 184.59 235.53 184.59 230.245C184.59 224.961 189.791 218.794 190.655 206.909C191.52 195.024 191.087 189.269 191.087 189.269C191.087 189.269 209.637 219.198 222.582 220.962C235.526 222.726 243.292 210.4 238.545 193.672C233.798 176.943 213.087 163.302 204.897 152.291C196.706 141.281 178.143 141.266 168.656 141.266C159.168 141.266 154.421 137.746 152.692 131.145C150.963 124.545 150.971 111.3 150.971 111.3C150.971 111.3 139.748 118.342 120.766 110.418C120.766 110.418 122.495 134.629 120.334 138.15C118.173 141.671 115.176 145.257 102.231 145.257C89.2864 145.257 78.5026 147.903 72.466 154.077C66.4294 160.251 41.4042 184.889 34.9353 194.576C28.4665 204.263 31.9098 214.825 39.6753 218.787C47.4408 222.748 55.2062 219.22 60.8178 213.943C66.4294 208.666 84.1142 191.93 84.1142 191.93C84.1142 191.93 84.1142 202.058 88.8614 216.582C93.6085 231.105 97.5057 229.349 94.0336 239.911C90.5614 250.473 83.682 253.56 81.5281 267.201C80.238 275.053 79.6593 283.01 79.7993 290.971" stroke="#263238" stroke-width="0.724833" stroke-linecap="round" stroke-linejoin="round"/>
<path d="M84.1141 191.937C84.468 187.176 85.4244 182.482 86.9595 177.972L84.1141 191.937Z" fill="white"/>
<path d="M84.1141 191.937C84.468 187.176 85.4244 182.482 86.9595 177.972" stroke="#263238" stroke-width="0.724833" stroke-linecap="round" stroke-linejoin="round"/>
<path d="M191.073 189.298C190.123 185.645 188.802 182.103 187.133 178.729" stroke="#263238" stroke-width="0.724833" stroke-linecap="round" stroke-linejoin="round"/>
<path d="M127.703 238.087L154.875 229.201" stroke="#263238" stroke-width="0.724833" stroke-linecap="round" stroke-linejoin="round"/>
<path d="M140.007 230.767C146.355 228.161 152.979 226.318 159.745 225.277" stroke="#263238" stroke-width="0.724833" stroke-linecap="round" stroke-linejoin="round"/>
<path d="M132.429 174.775C153.953 179.009 162.259 157.959 165.147 141.134C157.98 140.326 154.205 136.923 152.707 131.197C150.985 124.582 150.985 111.352 150.985 111.352C150.985 111.352 139.762 118.394 120.78 110.47C120.78 110.47 122.509 134.681 120.348 138.202C118.85 140.657 116.919 143.112 111.517 144.368C111.322 151.924 112.813 170.909 132.429 174.775Z" fill="#B2B2B2"/>
<mask id="mask1_177_14093" style="mask-type:luminance" maskUnits="userSpaceOnUse" x="111" y="110" width="55" height="66">
<path d="M132.429 174.775C153.953 179.009 162.259 157.959 165.147 141.134C157.98 140.326 154.205 136.923 152.707 131.197C150.985 124.582 150.985 111.352 150.985 111.352C150.985 111.352 139.762 118.394 120.78 110.47C120.78 110.47 122.509 134.681 120.348 138.202C118.85 140.657 116.919 143.112 111.517 144.368C111.322 151.924 112.813 170.909 132.429 174.775Z" fill="white"/>
</mask>
<g mask="url(#mask1_177_14093)">
<path opacity="0.2" d="M152.238 129.021C150.985 122.067 150.985 111.381 150.985 111.381C150.985 111.381 139.762 118.422 120.78 110.499C120.78 110.499 121.501 120.619 121.429 128.727C137.766 134.518 147.218 132.063 152.238 129.021Z" fill="black"/>
</g>
<path d="M132.429 174.775C153.953 179.009 162.259 157.959 165.147 141.134C157.98 140.326 154.205 136.923 152.707 131.197C150.985 124.582 150.985 111.352 150.985 111.352C150.985 111.352 139.762 118.394 120.78 110.47C120.78 110.47 122.509 134.681 120.348 138.202C118.85 140.657 116.919 143.112 111.517 144.368C111.322 151.924 112.813 170.909 132.429 174.775Z" stroke="#263238" stroke-width="0.724833" stroke-linecap="round" stroke-linejoin="round"/>
<path d="M164.974 102.943C167.926 102.943 170.319 100.501 170.319 97.4893C170.319 94.4773 167.926 92.0356 164.974 92.0356C162.022 92.0356 159.629 94.4773 159.629 97.4893C159.629 100.501 162.022 102.943 164.974 102.943Z" fill="#54BD26" stroke="#263238" stroke-width="0.724833" stroke-linecap="round" stroke-linejoin="round"/>
<path d="M107.879 102.943C110.831 102.943 113.224 100.501 113.224 97.4893C113.224 94.4773 110.831 92.0356 107.879 92.0356C104.927 92.0356 102.534 94.4773 102.534 97.4893C102.534 100.501 104.927 102.943 107.879 102.943Z" fill="#54BD26" stroke="#263238" stroke-width="0.724833" stroke-linecap="round" stroke-linejoin="round"/>
<path d="M164.485 78.9017C164.485 78.9017 167.157 70.4713 170.32 73.448C173.482 76.4248 169.347 87.8246 167.157 90.5515C164.967 93.2783 162.785 93.2783 163.029 89.5592C163.274 85.8401 164.485 78.9017 164.485 78.9017Z" fill="#B2B2B2" stroke="#263238" stroke-width="0.724833" stroke-linecap="round" stroke-linejoin="round"/>
<path d="M109.233 87.383C109.233 87.383 109.953 107.074 124.159 116.732C138.364 126.389 148.918 120.818 154.745 112.645C160.573 104.472 164.218 96.2986 164.218 84.4137C164.218 72.5287 165.659 67.3176 161.668 59.8867C157.677 52.4559 143.825 48.7441 143.825 48.7441C138.07 56.0721 131.867 63.0218 125.254 69.552C114.326 80.3197 109.233 87.383 109.233 87.383Z" fill="#B2B2B2"/>
<mask id="mask2_177_14093" style="mask-type:luminance" maskUnits="userSpaceOnUse" x="109" y="48" width="56" height="74">
<path d="M109.233 87.383C109.233 87.383 109.953 107.074 124.159 116.732C138.364 126.389 148.918 120.818 154.745 112.645C160.573 104.472 164.218 96.2986 164.218 84.4137C164.218 72.5287 165.659 67.3176 161.668 59.8867C157.677 52.4559 143.825 48.7441 143.825 48.7441C138.07 56.0721 131.867 63.0218 125.254 69.552C114.326 80.3197 109.233 87.383 109.233 87.383Z" fill="white"/>
</mask>
<g mask="url(#mask2_177_14093)">
<path opacity="0.2" d="M143.825 48.7441C138.07 56.0721 131.867 63.0218 125.254 69.552C114.326 80.3197 109.233 87.383 109.233 87.383C109.497 91.2197 110.24 95.0062 111.445 98.6506C130.635 83.6713 141.116 56.7556 143.904 48.7662L143.825 48.7441Z" fill="black"/>
</g>
<path d="M109.233 87.383C109.233 87.383 109.953 107.074 124.159 116.732C138.364 126.389 148.918 120.818 154.745 112.645C160.573 104.472 164.218 96.2986 164.218 84.4136C164.218 72.5287 165.659 67.3176 161.668 59.8867C157.677 52.4559 143.825 48.7441 143.825 48.7441C138.07 56.0721 131.867 63.0218 125.254 69.552C114.326 80.3197 109.233 87.383 109.233 87.383Z" stroke="#263238" stroke-width="0.724833" stroke-linecap="round" stroke-linejoin="round"/>
<path d="M122.668 85.0679L130.844 85.847" stroke="#263238" stroke-width="0.724833" stroke-linecap="round" stroke-linejoin="round"/>
<path d="M147.448 84.8037C147.448 84.8037 152.815 83.76 155.372 84.8037" stroke="#263238" stroke-width="0.724833" stroke-linecap="round" stroke-linejoin="round"/>
<path d="M129.742 81.2533C129.742 83.2378 128.87 84.8475 127.797 84.8475C126.723 84.8475 125.859 83.2378 125.859 81.2533C125.859 79.2688 126.723 77.6592 127.797 77.6592C128.87 77.6592 129.742 79.2688 129.742 81.2533Z" fill="#263238"/>
<path d="M134.114 93.8068C135.419 94.6418 136.954 95.0217 138.488 94.8891C140.023 94.7565 141.473 94.1187 142.622 93.0718" stroke="#263238" stroke-width="0.724833" stroke-linecap="round" stroke-linejoin="round"/>
<path d="M136.326 102.2C136.326 102.2 143.853 105.427 148.226 95.0122" stroke="#263238" stroke-width="0.724833" stroke-linecap="round" stroke-linejoin="round"/>
<path d="M146.022 81.3786C146.022 81.3786 150.639 78.1519 155.257 80.1364" stroke="#263238" stroke-width="1.44967" stroke-linecap="round" stroke-linejoin="round"/>
<path d="M144.567 73.2273C144.567 73.2273 149.667 68.0235 156.712 72.235" stroke="#263238" stroke-width="1.44967" stroke-linecap="round" stroke-linejoin="round"/>
<path d="M133.632 69.9713C133.632 69.9713 129.259 65.5098 123.179 69.7287" stroke="#263238" stroke-width="1.44967" stroke-linecap="round" stroke-linejoin="round"/>
<path d="M34.9353 194.583C34.9353 194.583 27.1698 203.403 27.1698 212.627C27.1698 221.851 32.342 230.267 46.6195 243.438C60.897 256.609 74.2236 266.326 79.8352 269.413C85.4468 272.5 91.0512 268.531 91.0512 268.531C91.0512 268.531 100.329 277.99 101.403 275.793C102.476 273.595 98.1683 270.287 97.3039 268.972C96.5452 267.927 95.6781 266.968 94.7178 266.113C94.7178 266.113 99.2489 266.767 100.978 268.318C102.707 269.868 105.502 272.5 106.798 272.279C108.095 272.059 108.095 270.956 106.15 268.318C104.582 266.251 102.688 264.465 100.546 263.033C99.2489 262.158 94.9339 259.733 94.9339 259.733C94.9339 259.733 101.187 259.292 103.348 260.615C105.509 261.938 111.329 265.899 111.762 264.135C112.194 262.371 112.194 261.276 110.033 259.292C107.872 257.307 103.549 254.882 100.978 254.448C99.205 254.116 97.4697 253.601 95.7984 252.912C95.7984 252.912 100.762 251.148 102.483 251.148C104.205 251.148 111.128 254.669 113.051 254.235C114.974 253.801 113.915 252.03 112.41 250.928C110.904 249.825 104.212 247.186 101.403 246.966C98.5934 246.745 82.8535 252.251 80.9158 252.251C78.978 252.251 74.0147 245.209 68.8353 235.742C63.656 226.276 61.7182 211.532 50.7183 206.475" fill="#54BD26"/>
<mask id="mask3_177_14093" style="mask-type:luminance" maskUnits="userSpaceOnUse" x="27" y="194" width="88" height="83">
<path d="M34.9353 194.583C34.9353 194.583 27.1698 203.403 27.1698 212.627C27.1698 221.851 32.342 230.267 46.6195 243.438C60.897 256.609 74.2236 266.326 79.8352 269.413C85.4468 272.5 91.0512 268.531 91.0512 268.531C91.0512 268.531 100.329 277.99 101.403 275.793C102.476 273.595 98.1683 270.287 97.3039 268.972C96.5452 267.927 95.6781 266.968 94.7178 266.113C94.7178 266.113 99.2489 266.767 100.978 268.318C102.707 269.868 105.502 272.5 106.798 272.279C108.095 272.059 108.095 270.956 106.15 268.318C104.582 266.251 102.688 264.465 100.546 263.033C99.2489 262.158 94.9339 259.733 94.9339 259.733C94.9339 259.733 101.187 259.292 103.348 260.615C105.509 261.938 111.329 265.899 111.762 264.135C112.194 262.371 112.194 261.276 110.033 259.292C107.872 257.307 103.549 254.882 100.978 254.448C99.205 254.116 97.4697 253.601 95.7984 252.912C95.7984 252.912 100.762 251.148 102.483 251.148C104.205 251.148 111.128 254.669 113.051 254.235C114.974 253.801 113.915 252.03 112.41 250.928C110.904 249.825 104.212 247.186 101.403 246.966C98.5934 246.745 82.8535 252.251 80.9158 252.251C78.978 252.251 74.0147 245.209 68.8353 235.742C63.656 226.276 61.7182 211.532 50.7183 206.475" fill="white"/>
</mask>
<g mask="url(#mask3_177_14093)">
<g opacity="0.2">
<path d="M33.9772 225.63C34.2725 225.63 35.3531 226.365 33.9772 228.504C35.3531 226.38 34.2725 225.63 33.9772 225.63Z" fill="black"/>
<path d="M51.2657 216.81C50.9704 216.81 49.8898 217.545 51.2657 219.683C52.6416 217.559 51.5611 216.81 51.2657 216.81Z" fill="black"/>
<path d="M37.161 209.857C37.0097 209.592 35.8283 209.019 34.7262 211.327C37.2186 211.444 37.3123 210.114 37.161 209.857Z" fill="black"/>
<path d="M36.9162 228.371C36.9881 228.292 37.0487 228.203 37.0963 228.106C37.1665 228.022 37.2094 227.917 37.219 227.807C37.2287 227.697 37.2047 227.586 37.1502 227.49C37.0957 227.394 37.0135 227.318 36.9149 227.272C36.8162 227.225 36.706 227.211 36.5992 227.232C36.2841 227.225 35.9772 227.335 35.7348 227.54C35.588 227.659 35.4529 227.792 35.3314 227.937C35.1867 228.115 35.0565 228.304 34.9424 228.503H36.7721C36.8233 228.463 36.8714 228.419 36.9162 228.371Z" fill="black"/>
<path d="M54.4497 218.676C54.2984 218.411 53.117 217.838 52.0149 220.146C54.5073 220.264 54.5938 218.933 54.4497 218.676Z" fill="black"/>
<path d="M50.5165 220.124C49.4144 217.839 48.233 218.412 48.0817 218.654C47.9304 218.897 48.0313 220.264 50.5165 220.124Z" fill="black"/>
<path d="M33.9772 207.99V210.864C35.3531 208.739 34.2725 207.99 33.9772 207.99Z" fill="black"/>
<path d="M33.9772 225.63V228.504C35.3531 226.38 34.2725 225.63 33.9772 225.63Z" fill="black"/>
<path d="M68.5543 260.909C68.4266 260.936 68.3076 260.995 68.2081 261.081C68.1087 261.167 68.032 261.277 67.9852 261.402L69.2026 262.313C69.3827 261.299 68.7704 260.909 68.5543 260.909Z" fill="black"/>
<path d="M85.843 269.729C85.6614 269.775 85.4989 269.879 85.3796 270.026C85.2602 270.173 85.1904 270.355 85.1803 270.545C85.613 270.511 86.0434 270.452 86.4697 270.369C86.4353 270.213 86.3582 270.07 86.2472 269.957C86.1363 269.843 85.9961 269.765 85.843 269.729Z" fill="black"/>
<path d="M68.5544 243.269C68.2591 243.269 67.1785 244.004 68.5544 246.143C69.9303 244.019 68.8498 243.269 68.5544 243.269Z" fill="black"/>
<path d="M85.8429 254.963C87.2187 252.839 86.1382 252.089 85.8429 252.089C85.5475 252.089 84.4598 252.839 85.8429 254.963Z" fill="black"/>
<path d="M51.2658 237.323C52.6417 235.199 51.5612 234.449 51.2658 234.449C50.9705 234.449 49.8827 235.199 51.2658 237.323Z" fill="black"/>
<path d="M71.7384 262.776C71.6231 262.578 70.9316 262.203 70.132 262.99C70.521 263.284 70.9099 263.563 71.2917 263.835C71.4724 263.736 71.6149 263.577 71.696 263.385C71.7771 263.193 71.7921 262.978 71.7384 262.776Z" fill="black"/>
<path d="M69.3323 246.585C71.8175 246.724 71.9112 245.394 71.7671 245.115C71.623 244.835 70.4056 244.299 69.3323 246.585Z" fill="black"/>
<path d="M86.621 255.404C89.1062 255.544 89.1999 254.214 89.0558 253.934C88.9117 253.655 87.6943 253.119 86.621 255.404Z" fill="black"/>
<path d="M52.0437 237.764C54.5361 237.904 54.6226 236.574 54.4785 236.294C54.3344 236.015 53.117 235.478 52.0437 237.764Z" fill="black"/>
<path d="M102.13 264.231C101.511 263.732 100.942 263.327 100.509 263.026L100.005 262.703L99.9475 262.776C99.8035 263.026 99.8971 264.268 102.13 264.231Z" fill="black"/>
<path d="M67.8052 246.584C66.7031 244.298 65.5217 244.872 65.3704 245.114C65.2191 245.357 65.32 246.724 67.8052 246.584Z" fill="black"/>
<path d="M82.659 253.956C82.5077 254.214 82.6085 255.544 85.0938 255.426C83.9916 253.118 82.8102 253.692 82.659 253.956Z" fill="black"/>
<path d="M48.0818 236.316C47.9378 236.573 48.0314 237.904 50.5166 237.786C49.4145 235.478 48.2331 236.052 48.0818 236.316Z" fill="black"/>
<path d="M36.7865 228.503H34.9568C34.9589 228.518 34.9589 228.533 34.9568 228.548C34.892 228.665 34.82 228.797 34.7551 228.944C35.4621 229.048 36.1821 228.892 36.7865 228.503Z" fill="black"/>
<path d="M33.9771 207.99C33.6818 207.99 32.6012 208.725 33.9771 210.864V207.99Z" fill="black"/>
<path d="M33.9771 228.504V225.63C33.6818 225.63 32.594 226.38 33.9771 228.504Z" fill="black"/>
<path d="M33.2279 211.304C32.1258 209.018 30.9444 209.592 30.7931 209.834C30.6418 210.077 30.7427 211.444 33.2279 211.304Z" fill="black"/>
<path d="M32.5941 227.938C32.4726 227.792 32.3375 227.659 32.1907 227.541L32.1403 227.504C32.3636 227.835 32.5869 228.173 32.8606 228.504H33.0191C32.8934 228.303 32.7513 228.114 32.5941 227.938Z" fill="black"/>
<path d="M33.0263 228.548C33.0242 228.533 33.0242 228.518 33.0263 228.503H32.8678L33.1848 228.944H33.2568C33.1631 228.797 33.0911 228.665 33.0263 228.548Z" fill="black"/>
</g>
</g>
<path d="M34.9353 194.583C34.9353 194.583 27.1698 203.403 27.1698 212.627C27.1698 221.851 32.342 230.267 46.6195 243.438C60.897 256.609 74.2236 266.326 79.8352 269.413C85.4468 272.5 91.0512 268.531 91.0512 268.531C91.0512 268.531 100.329 277.99 101.403 275.793C102.476 273.595 98.1683 270.287 97.3039 268.972C96.5452 267.927 95.6781 266.968 94.7178 266.113C94.7178 266.113 99.2489 266.767 100.978 268.318C102.707 269.868 105.502 272.5 106.798 272.279C108.095 272.059 108.095 270.956 106.15 268.318C104.582 266.251 102.688 264.465 100.546 263.033C99.2489 262.158 94.9339 259.733 94.9339 259.733C94.9339 259.733 101.187 259.292 103.348 260.615C105.509 261.938 111.329 265.899 111.762 264.135C112.194 262.371 112.194 261.276 110.033 259.292C107.872 257.307 103.549 254.882 100.978 254.448C99.205 254.116 97.4697 253.601 95.7984 252.912C95.7984 252.912 100.762 251.148 102.483 251.148C104.205 251.148 111.128 254.669 113.051 254.235C114.974 253.801 113.915 252.03 112.41 250.928C110.904 249.825 104.212 247.186 101.403 246.966C98.5934 246.745 82.8535 252.251 80.9158 252.251C78.978 252.251 74.0147 245.209 68.8353 235.742C63.656 226.276 61.7182 211.532 50.7183 206.475" stroke="#263238" stroke-width="0.724833" stroke-linecap="round" stroke-linejoin="round"/>
<path d="M112.374 250.921C110.861 249.826 104.176 247.18 101.367 246.959C98.5573 246.739 82.8175 252.244 80.8797 252.244C78.9419 252.244 73.9787 245.203 68.7993 235.736C65.9179 230.481 64.0449 223.594 61.0554 217.647C45.2076 215.442 38.4146 224.895 35.2738 231.693C38.7707 235.877 42.5498 239.807 46.5834 243.453C60.8177 256.683 74.1876 266.341 79.7992 269.428C85.4108 272.515 91.0152 268.546 91.0152 268.546C91.0152 268.546 100.293 278.006 101.367 275.808C102.44 273.61 98.1323 270.303 97.2679 268.987C96.5091 267.942 95.6421 266.983 94.6818 266.128C94.6818 266.128 99.2128 266.782 100.942 268.333C102.671 269.884 105.466 272.515 106.762 272.295C108.059 272.074 108.059 270.972 106.114 268.333C104.546 266.267 102.652 264.481 100.509 263.048C99.2128 262.174 94.8979 259.748 94.8979 259.748C94.8979 259.748 101.151 259.307 103.312 260.63C105.473 261.953 111.293 265.915 111.725 264.151C112.158 262.387 112.158 261.292 109.997 259.307C107.836 257.323 103.513 254.897 100.942 254.464C99.1689 254.131 97.4336 253.616 95.7623 252.927C95.7623 252.927 100.726 251.163 102.447 251.163C104.169 251.163 111.092 254.684 113.015 254.25C114.938 253.817 113.879 252.023 112.374 250.921Z" fill="#B2B2B2" stroke="#263238" stroke-width="0.724833" stroke-linecap="round" stroke-linejoin="round"/>
<path d="M206.028 202.845C204.227 198.648 205.768 189.461 207.569 176.341C209.37 163.221 211.171 149.837 211.171 142.751C211.171 135.666 212.316 125.846 210.054 122.679C207.793 119.511 199.559 110.919 198.946 106.935C198.334 102.951 203.881 96.858 203.881 96.858C203.881 96.858 205.531 93.7049 206.971 95.3881C208.412 97.0712 207.793 99.1659 206.971 102.106C206.15 105.046 205.322 107.354 205.322 107.354C205.322 107.354 212.525 109.662 214.377 108.405C216.228 107.148 216.062 99.9598 215.933 96.4391C215.666 89.5742 212.972 92.5069 211.106 95.7555C210.206 97.3137 204.933 96.3877 208.016 92.3966C211.099 88.4056 213.966 84.8849 216.847 88.0381C219.729 91.1912 221.782 97.277 221.782 97.277C221.782 97.277 223.842 87.2737 225.715 81.3937C227.588 75.5137 230.945 73.1837 232.155 73.5953C233.365 74.0069 233.228 76.0576 232.018 78.9314C230.808 81.8053 228.128 89.7359 227.458 92.3378C226.788 94.9397 226.659 97.9458 227.999 97.6739C229.338 97.4019 234.028 89.0524 235.375 85.495C236.722 81.9376 238.725 78.6595 241.001 77.1527C243.277 75.646 245.158 77.5643 244.221 80.0266C242.361 84.4793 240.249 88.8182 237.896 93.0214C236.417 95.7378 235.162 98.5749 234.143 101.503C236.352 99.1024 238.679 96.8184 241.116 94.6604C244.336 91.9262 247.823 91.3823 248.889 92.3378C249.955 93.2933 249.026 93.433 246.346 95.6233C243.666 97.8136 239.661 100.423 236.456 105.744C233.973 109.646 232.033 113.881 230.693 118.327C229.696 121.246 228.392 124.046 226.803 126.677C226.803 126.677 229.317 147.507 233.675 158.965C238.033 170.424 245.741 187.182 243.393 199.155C241.044 211.128 236.52 217.28 230.152 219.162C228.306 219.712 226.359 219.813 224.468 219.457C222.576 219.101 220.793 218.297 219.261 217.111" fill="#54BD26"/>
<mask id="mask4_177_14093" style="mask-type:luminance" maskUnits="userSpaceOnUse" x="198" y="73" width="52" height="147">
<path d="M206.028 202.845C204.227 198.648 205.768 189.461 207.569 176.341C209.37 163.221 211.171 149.837 211.171 142.751C211.171 135.666 212.316 125.846 210.054 122.679C207.793 119.511 199.559 110.919 198.946 106.935C198.334 102.951 203.881 96.858 203.881 96.858C203.881 96.858 205.531 93.7049 206.971 95.3881C208.412 97.0712 207.793 99.1659 206.971 102.106C206.15 105.046 205.322 107.354 205.322 107.354C205.322 107.354 212.525 109.662 214.377 108.405C216.228 107.148 216.062 99.9598 215.933 96.4391C215.666 89.5742 212.972 92.5069 211.106 95.7555C210.206 97.3137 204.933 96.3877 208.016 92.3966C211.099 88.4056 213.966 84.8849 216.847 88.0381C219.729 91.1912 221.782 97.277 221.782 97.277C221.782 97.277 223.842 87.2737 225.715 81.3937C227.588 75.5137 230.945 73.1837 232.155 73.5953C233.365 74.0069 233.228 76.0576 232.018 78.9314C230.808 81.8053 228.128 89.7359 227.458 92.3378C226.788 94.9397 226.659 97.9458 227.999 97.6739C229.338 97.4019 234.028 89.0524 235.375 85.495C236.722 81.9376 238.725 78.6595 241.001 77.1527C243.277 75.646 245.158 77.5643 244.221 80.0266C242.361 84.4793 240.249 88.8182 237.896 93.0214C236.417 95.7378 235.162 98.5749 234.143 101.503C236.352 99.1024 238.679 96.8184 241.116 94.6604C244.336 91.9262 247.823 91.3823 248.889 92.3378C249.955 93.2933 249.026 93.433 246.346 95.6233C243.666 97.8136 239.661 100.423 236.456 105.744C233.973 109.646 232.033 113.881 230.693 118.327C229.696 121.246 228.392 124.046 226.803 126.677C226.803 126.677 229.317 147.507 233.675 158.965C238.033 170.424 245.741 187.182 243.393 199.155C241.044 211.128 236.52 217.28 230.152 219.162C228.306 219.712 226.359 219.813 224.468 219.457C222.576 219.101 220.793 218.297 219.261 217.111" fill="white"/>
</mask>
<g mask="url(#mask4_177_14093)">
<g opacity="0.2">
<path d="M241.44 84.5098C241.57 84.5388 241.691 84.6003 241.792 84.6889C241.892 84.7774 241.97 84.8902 242.017 85.0169C241.971 84.8891 241.894 84.7753 241.794 84.6865C241.693 84.5977 241.571 84.5369 241.44 84.5098Z" fill="black"/>
<path d="M241.44 84.5098V86.2297L242.017 85.0169C241.97 84.8902 241.892 84.7774 241.792 84.6889C241.691 84.6003 241.57 84.5388 241.44 84.5098Z" fill="black"/>
<path d="M243.796 193.473C243.796 192.983 243.774 192.493 243.731 192.003C243.285 192.121 242.723 192.554 242.19 193.671C242.733 193.72 243.28 193.652 243.796 193.473Z" fill="black"/>
<path d="M241.44 190.35V193.223C242.816 191.099 241.736 190.35 241.44 190.35Z" fill="black"/>
<path d="M206.863 102.149C206.611 102.149 205.819 102.685 206.381 104.104C206.561 103.509 206.755 102.855 206.95 102.164L206.863 102.149Z" fill="black"/>
<path d="M224.152 113.844C225.528 111.719 224.447 110.97 224.152 110.97C223.856 110.97 222.769 111.719 224.152 113.844Z" fill="black"/>
<path d="M241.138 86.8544L241.44 86.2297V84.5098C241.167 84.5098 240.252 85.1419 241.138 86.8544Z" fill="black"/>
<path d="M224.152 93.3296C223.857 93.3296 222.776 94.0646 224.152 96.2034C225.528 94.0793 224.447 93.3296 224.152 93.3296Z" fill="black"/>
<path d="M209.997 122.267C210.048 122.175 210.079 122.073 210.087 121.967C210.096 121.862 210.082 121.756 210.047 121.657C209.98 121.575 209.897 121.508 209.802 121.463C209.708 121.417 209.604 121.393 209.5 121.392C209.365 121.388 209.231 121.408 209.104 121.451C209.399 121.818 209.665 122.149 209.882 122.443C209.927 122.39 209.966 122.33 209.997 122.267Z" fill="black"/>
<path d="M227.336 112.836C227.185 112.572 226.003 111.998 224.901 114.306C227.386 114.424 227.48 113.093 227.336 112.836Z" fill="black"/>
<path d="M226.983 96.189C226.955 95.7853 226.955 95.38 226.983 94.9763C226.522 94.8293 225.679 94.9763 224.879 96.6447C225.612 96.7657 226.362 96.6032 226.983 96.189Z" fill="black"/>
<path d="M227.357 77.6372C227.163 77.968 226.983 78.3281 226.796 78.703C226.99 78.6114 227.15 78.458 227.251 78.2658C227.352 78.0736 227.39 77.853 227.357 77.6372Z" fill="black"/>
<path d="M203.679 104.016C203.535 104.266 203.629 105.545 205.956 105.486L206.02 105.295C204.947 103.222 203.831 103.759 203.679 104.016Z" fill="black"/>
<path d="M220.968 112.836C220.817 113.093 220.917 114.424 223.403 114.306C222.301 111.998 221.119 112.572 220.968 112.836Z" fill="black"/>
<path d="M238.256 86.3761C238.112 86.6334 238.206 87.9564 240.662 87.8461C239.582 85.5456 238.408 86.1115 238.256 86.3761Z" fill="black"/>
<path d="M223.403 96.6438C223.155 96.0528 222.751 95.5438 222.236 95.1738C222.12 95.7251 222.02 96.1881 221.948 96.5409C222.423 96.6616 222.915 96.6964 223.403 96.6438Z" fill="black"/>
<path d="M221.407 96.2543C221.292 95.9456 221.148 95.5854 220.982 95.1812C220.925 95.3827 220.935 95.5983 221.012 95.793C221.089 95.9878 221.228 96.1503 221.407 96.2543Z" fill="black"/>
<path d="M224.152 166.763C225.528 164.639 224.447 163.89 224.152 163.89C223.856 163.89 222.769 164.639 224.152 166.763Z" fill="black"/>
<path d="M224.152 146.25C223.857 146.25 222.776 146.985 224.152 149.123C225.528 146.999 224.447 146.25 224.152 146.25Z" fill="black"/>
<path d="M224.152 128.609C223.857 128.609 222.776 129.344 224.152 131.483C225.528 129.359 224.447 128.609 224.152 128.609Z" fill="black"/>
<path d="M210.076 157.018C210.076 157.172 210.04 157.334 210.018 157.488C210.083 157.341 210.103 157.177 210.076 157.018Z" fill="black"/>
<path d="M210.047 174.576C209.903 174.326 208.873 173.841 207.843 175.583H209.673C209.832 175.477 209.954 175.323 210.021 175.142C210.089 174.961 210.098 174.763 210.047 174.576Z" fill="black"/>
<path d="M224.93 167.204C227.415 167.343 227.509 166.013 227.365 165.734C227.221 165.454 226.003 164.918 224.93 167.204Z" fill="black"/>
<path d="M227.336 148.117C227.185 147.852 226.003 147.279 224.901 149.587C227.386 149.704 227.48 148.374 227.336 148.117Z" fill="black"/>
<path d="M224.93 131.924C226.76 132.027 227.293 131.336 227.386 130.858L227.321 130.425C227.048 130.153 225.938 129.77 224.93 131.924Z" fill="black"/>
<path d="M239.632 174.591C238.912 174.084 238.357 174.393 238.256 174.591C238.206 174.778 238.215 174.976 238.282 175.157C238.35 175.338 238.472 175.493 238.631 175.598H239.971L239.632 174.591Z" fill="black"/>
<path d="M220.968 165.756C220.817 166.013 220.917 167.344 223.403 167.226C222.301 164.918 221.119 165.492 220.968 165.756Z" fill="black"/>
<path d="M220.968 148.117C220.817 148.374 220.917 149.704 223.403 149.587C222.301 147.279 221.119 147.852 220.968 148.117Z" fill="black"/>
<path d="M220.968 130.476C220.817 130.734 220.917 132.064 223.403 131.946C222.301 129.638 221.119 130.212 220.968 130.476Z" fill="black"/>
<path d="M224.152 216.809C223.871 216.809 222.891 217.485 223.95 219.352L224.31 219.426C225.434 217.5 224.433 216.809 224.152 216.809Z" fill="black"/>
<path d="M206.863 193.223C208.239 191.099 207.159 190.35 206.863 190.35C206.568 190.35 205.48 191.099 206.863 193.223Z" fill="black"/>
<path d="M241.44 190.35C241.145 190.35 240.065 191.085 241.44 193.223V190.35Z" fill="black"/>
<path d="M224.152 202.043C225.528 199.919 224.447 199.169 224.152 199.169C223.856 199.169 222.769 199.919 224.152 202.043Z" fill="black"/>
<path d="M224.152 181.529C223.857 181.529 222.776 182.264 224.152 184.403C225.528 182.279 224.447 181.529 224.152 181.529Z" fill="black"/>
<path d="M227.336 218.676C227.199 218.434 226.212 217.941 225.175 219.566C225.767 219.643 226.364 219.675 226.961 219.661C227.117 219.558 227.237 219.407 227.304 219.23C227.371 219.054 227.383 218.86 227.336 218.676Z" fill="black"/>
<path d="M207.641 193.664C210.127 193.803 210.22 192.473 210.076 192.194C209.932 191.914 208.715 191.378 207.641 193.664Z" fill="black"/>
<path d="M224.93 202.484C227.415 202.624 227.509 201.293 227.365 201.014C227.221 200.735 226.003 200.198 224.93 202.484Z" fill="black"/>
<path d="M227.336 183.396C227.185 183.132 226.003 182.558 224.901 184.866C227.386 184.984 227.48 183.654 227.336 183.396Z" fill="black"/>
<path d="M238.256 209.856C238.141 210.055 238.177 210.885 239.33 211.194C239.524 210.841 239.719 210.459 239.899 210.114C239.085 209.276 238.372 209.65 238.256 209.856Z" fill="black"/>
<path d="M221.378 218.433C221.79 218.631 222.21 218.808 222.639 218.963C222.493 218.77 222.299 218.619 222.078 218.526C221.857 218.434 221.616 218.401 221.378 218.433Z" fill="black"/>
<path d="M206.114 193.664C205.948 193.293 205.732 192.946 205.473 192.635C205.473 192.981 205.415 193.319 205.394 193.657C205.633 193.674 205.874 193.677 206.114 193.664Z" fill="black"/>
<path d="M240.691 193.664C239.589 191.378 238.408 191.951 238.256 192.194C238.105 192.436 238.206 193.804 240.691 193.664Z" fill="black"/>
<path d="M220.968 201.036C220.817 201.293 220.917 202.624 223.403 202.506C222.301 200.198 221.119 200.771 220.968 201.036Z" fill="black"/>
<path d="M220.968 183.396C220.817 183.654 220.917 184.984 223.403 184.866C222.301 182.558 221.119 183.132 220.968 183.396Z" fill="black"/>
<path d="M207.843 175.584C207.764 175.716 207.692 175.863 207.612 176.017C208.329 176.128 209.06 175.971 209.673 175.576H207.843V175.584Z" fill="black"/>
<path d="M239.971 175.583H238.617C239.057 175.884 239.578 176.038 240.108 176.024L239.971 175.583Z" fill="black"/>
</g>
</g>
<path d="M206.028 202.845C204.227 198.648 205.768 189.461 207.569 176.341C209.37 163.221 211.171 149.837 211.171 142.751C211.171 135.666 212.316 125.846 210.054 122.679C207.793 119.511 199.559 110.919 198.946 106.935C198.334 102.951 203.881 96.858 203.881 96.858C203.881 96.858 205.531 93.7049 206.971 95.388C208.412 97.0712 207.793 99.1659 206.971 102.106C206.15 105.046 205.322 107.354 205.322 107.354C205.322 107.354 212.525 109.662 214.377 108.405C216.228 107.148 216.062 99.9598 215.933 96.4391C215.666 89.5742 212.972 92.5069 211.106 95.7555C210.206 97.3137 204.933 96.3877 208.016 92.3966C211.099 88.4056 213.966 84.8849 216.847 88.0381C219.729 91.1912 221.782 97.277 221.782 97.277C221.782 97.277 223.842 87.2737 225.715 81.3937C227.588 75.5137 230.945 73.1837 232.155 73.5953C233.365 74.0069 233.228 76.0576 232.018 78.9314C230.808 81.8053 228.128 89.7359 227.458 92.3378C226.788 94.9397 226.659 97.9458 227.999 97.6739C229.338 97.4019 234.028 89.0524 235.375 85.495C236.722 81.9376 238.725 78.6595 241.001 77.1527C243.277 75.646 245.158 77.5643 244.221 80.0266C242.361 84.4793 240.249 88.8182 237.896 93.0214C236.417 95.7378 235.162 98.5749 234.143 101.503C236.352 99.1024 238.679 96.8184 241.116 94.6604C244.336 91.9262 247.823 91.3823 248.889 92.3378C249.955 93.2933 249.026 93.433 246.346 95.6233C243.666 97.8136 239.661 100.423 236.456 105.744C233.973 109.646 232.033 113.881 230.693 118.327C229.696 121.246 228.392 124.046 226.803 126.677C226.803 126.677 229.317 147.507 233.675 158.965C238.033 170.424 245.741 187.182 243.393 199.155C241.044 211.128 236.52 217.28 230.152 219.162C228.306 219.712 226.359 219.813 224.468 219.457C222.576 219.101 220.793 218.297 219.261 217.111" stroke="#263238" stroke-width="0.724833" stroke-linecap="round" stroke-linejoin="round"/>
<path d="M236.456 105.744C239.676 100.408 243.702 97.8063 246.382 95.6234C249.062 93.4404 249.984 93.2934 248.925 92.3379C247.866 91.3824 244.372 91.9263 241.152 94.6605C238.715 96.8186 236.388 99.1025 234.179 101.503C235.186 98.5761 236.43 95.7391 237.896 93.0215C240.242 88.8178 242.346 84.4789 244.199 80.0267C245.136 77.5644 243.263 75.6167 240.979 77.1528C238.696 78.689 236.693 81.9377 235.353 85.4951C234.014 89.0525 229.317 97.4021 227.977 97.674C226.637 97.946 226.767 94.9325 227.437 92.3379C228.107 89.7434 230.794 81.8054 231.997 78.9315C233.2 76.0577 233.336 74.007 232.133 73.5954C230.93 73.1838 227.574 75.5064 225.693 81.3938C223.813 87.2811 221.76 97.2771 221.76 97.2771C221.76 97.2771 219.707 91.184 216.826 88.0382C213.944 84.8924 211.063 88.4057 207.994 92.3967C204.925 96.3878 210.155 97.3139 211.085 95.7557C212.95 92.507 215.644 89.5743 215.911 96.4392C216.041 99.9599 216.206 107.141 214.355 108.405C212.504 109.669 205.3 107.354 205.3 107.354C205.3 107.354 206.121 105.046 206.95 102.106C207.778 99.1661 208.39 97.064 206.95 95.3882C205.509 93.7124 203.859 96.8582 203.859 96.8582C203.859 96.8582 198.305 102.944 198.925 106.935C199.544 110.926 207.771 119.526 210.033 122.679C212.295 125.832 211.149 135.666 211.149 142.752C211.149 149.837 209.348 163.221 207.548 176.341C207.548 176.517 207.497 176.679 207.476 176.848C210.321 179.898 216.12 184.272 225.924 183.934C232.494 183.706 237.147 180.332 240.295 176.62C238.206 170.277 235.584 164.125 233.639 158.98C229.281 147.522 226.767 126.692 226.767 126.692C228.356 124.061 229.66 121.261 230.657 118.342C232.007 113.889 233.959 109.649 236.456 105.744Z" fill="#B2B2B2" stroke="#263238" stroke-width="0.724833" stroke-linecap="round" stroke-linejoin="round"/>
<path d="M216.732 125.853C216.732 125.853 215.529 120.657 217.273 117.371C218.189 115.503 219.7 114.008 221.559 113.13" stroke="#263238" stroke-width="0.724833" stroke-linecap="round" stroke-linejoin="round"/>
</svg>
